solid Default
  facet normal -9.999288e-01 -1.193467e-02 0.000000e+00
    outer loop
      vertex 4.028927e+00 4.270485e-01 5.000000e+00
      vertex 4.034024e+00 -2.123415e-07 0.000000e+00
      vertex 4.034024e+00 -2.123415e-07 5.000000e+00
    endloop
  endfacet
  facet normal -9.999288e-01 -1.193467e-02 0.000000e+00
    outer loop
      vertex 4.034024e+00 -2.123415e-07 0.000000e+00
      vertex 4.028927e+00 4.270485e-01 5.000000e+00
      vertex 4.028927e+00 4.270485e-01 0.000000e+00
    endloop
  endfacet
  facet normal 9.999288e-01 1.193467e-02 0.000000e+00
    outer loop
      vertex 5.526464e+00 6.424148e-01 0.000000e+00
      vertex 5.534131e+00 -2.123415e-07 5.000000e+00
      vertex 5.534131e+00 -2.123415e-07 0.000000e+00
    endloop
  endfacet
  facet normal 9.999288e-01 1.193467e-02 0.000000e+00
    outer loop
      vertex 5.534131e+00 -2.123415e-07 5.000000e+00
      vertex 5.526464e+00 6.424148e-01 0.000000e+00
      vertex 5.526464e+00 6.424148e-01 5.000000e+00
    endloop
  endfacet
  facet normal 0.000000e+00 0.000000e+00 -1.000000e+00
    outer loop
      vertex 5.534131e+00 -2.123415e-07 0.000000e+00
      vertex 4.038273e+00 -3.560526e-01 0.000000e+00
      vertex 4.034024e+00 -2.123415e-07 0.000000e+00
    endloop
  endfacet
  facet normal 0.000000e+00 0.000000e+00 -1.000000e+00
    outer loop
      vertex 4.038273e+00 -3.560526e-01 0.000000e+00
      vertex 5.534131e+00 -2.123415e-07 0.000000e+00
      vertex 4.672369e+00 -2.704379e+00 0.000000e+00
    endloop
  endfacet
  facet normal 0.000000e+00 0.000000e+00 -1.000000e+00
    outer loop
      vertex 4.672369e+00 -2.704379e+00 0.000000e+00
      vertex 5.534131e+00 -2.123415e-07 0.000000e+00
      vertex 5.249208e+00 -1.677145e+00 0.000000e+00
    endloop
  endfacet
  facet normal 0.000000e+00 0.000000e+00 -1.000000e+00
    outer loop
      vertex 5.249208e+00 -1.677145e+00 0.000000e+00
      vertex 5.534131e+00 -2.123415e-07 0.000000e+00
      vertex 5.540523e+00 -5.356152e-01 0.000000e+00
    endloop
  endfacet
  facet normal 0.000000e+00 0.000000e+00 -1.000000e+00
    outer loop
      vertex -2.640523e+00 -2.532525e+00 0.000000e+00
      vertex -1.140523e+00 -3.896124e+00 0.000000e+00
      vertex -2.640523e+00 -1.250000e+01 0.000000e+00
    endloop
  endfacet
  facet normal 0.000000e+00 0.000000e+00 -1.000000e+00
    outer loop
      vertex -1.140523e+00 -3.896124e+00 0.000000e+00
      vertex -2.640523e+00 -2.532525e+00 0.000000e+00
      vertex -5.052745e-01 -2.532525e+00 0.000000e+00
    endloop
  endfacet
  facet normal 0.000000e+00 0.000000e+00 -1.000000e+00
    outer loop
      vertex -1.140523e+00 -3.896124e+00 0.000000e+00
      vertex -5.052745e-01 -2.532525e+00 0.000000e+00
      vertex -6.176679e-01 -4.189731e+00 0.000000e+00
    endloop
  endfacet
  facet normal 0.000000e+00 0.000000e+00 -1.000000e+00
    outer loop
      vertex -6.176679e-01 -4.189731e+00 0.000000e+00
      vertex -5.052745e-01 -2.532525e+00 0.000000e+00
      vertex 5.238612e-01 -4.481046e+00 0.000000e+00
    endloop
  endfacet
  facet normal 0.000000e+00 0.000000e+00 -1.000000e+00
    outer loop
      vertex 5.238612e-01 -4.481046e+00 0.000000e+00
      vertex -5.052745e-01 -2.532525e+00 0.000000e+00
      vertex -5.541301e-02 -2.785142e+00 0.000000e+00
    endloop
  endfacet
  facet normal 0.000000e+00 0.000000e+00 -1.000000e+00
    outer loop
      vertex 5.238612e-01 -4.481046e+00 0.000000e+00
      vertex -5.541301e-02 -2.785142e+00 0.000000e+00
      vertex 7.034247e-01 -2.978796e+00 0.000000e+00
    endloop
  endfacet
  facet normal 0.000000e+00 0.000000e+00 -1.000000e+00
    outer loop
      vertex 5.238612e-01 -4.481046e+00 0.000000e+00
      vertex 7.034247e-01 -2.978796e+00 0.000000e+00
      vertex 1.701892e+00 -4.466986e+00 0.000000e+00
    endloop
  endfacet
  facet normal 0.000000e+00 0.000000e+00 -1.000000e+00
    outer loop
      vertex 1.701892e+00 -4.466986e+00 0.000000e+00
      vertex 7.034247e-01 -2.978796e+00 0.000000e+00
      vertex 1.486526e+00 -2.969449e+00 0.000000e+00
    endloop
  endfacet
  facet normal 0.000000e+00 0.000000e+00 -1.000000e+00
    outer loop
      vertex 1.701892e+00 -4.466986e+00 0.000000e+00
      vertex 1.486526e+00 -2.969449e+00 0.000000e+00
      vertex 2.240525e+00 -2.757739e+00 0.000000e+00
    endloop
  endfacet
  facet normal 0.000000e+00 0.000000e+00 -1.000000e+00
    outer loop
      vertex 1.701892e+00 -4.466986e+00 0.000000e+00
      vertex 2.240525e+00 -2.757739e+00 0.000000e+00
      vertex 2.836144e+00 -4.148507e+00 0.000000e+00
    endloop
  endfacet
  facet normal 0.000000e+00 0.000000e+00 -1.000000e+00
    outer loop
      vertex 2.836144e+00 -4.148507e+00 0.000000e+00
      vertex 2.240525e+00 -2.757739e+00 0.000000e+00
      vertex 2.914037e+00 -2.358094e+00 0.000000e+00
    endloop
  endfacet
  facet normal 0.000000e+00 0.000000e+00 -1.000000e+00
    outer loop
      vertex 2.836144e+00 -4.148507e+00 0.000000e+00
      vertex 2.914037e+00 -2.358094e+00 0.000000e+00
      vertex 3.849318e+00 -3.547316e+00 0.000000e+00
    endloop
  endfacet
  facet normal 0.000000e+00 0.000000e+00 -1.000000e+00
    outer loop
      vertex 3.849318e+00 -3.547316e+00 0.000000e+00
      vertex 2.914037e+00 -2.358094e+00 0.000000e+00
      vertex 3.461164e+00 -1.797749e+00 0.000000e+00
    endloop
  endfacet
  facet normal 0.000000e+00 0.000000e+00 -1.000000e+00
    outer loop
      vertex 3.849318e+00 -3.547316e+00 0.000000e+00
      vertex 3.461164e+00 -1.797749e+00 0.000000e+00
      vertex 3.844620e+00 -1.114889e+00 0.000000e+00
    endloop
  endfacet
  facet normal 0.000000e+00 0.000000e+00 -1.000000e+00
    outer loop
      vertex 3.849318e+00 -3.547316e+00 0.000000e+00
      vertex 3.844620e+00 -1.114889e+00 0.000000e+00
      vertex 4.038273e+00 -3.560526e-01 0.000000e+00
    endloop
  endfacet
  facet normal 0.000000e+00 0.000000e+00 -1.000000e+00
    outer loop
      vertex 3.849318e+00 -3.547316e+00 0.000000e+00
      vertex 4.038273e+00 -3.560526e-01 0.000000e+00
      vertex 4.672369e+00 -2.704379e+00 0.000000e+00
    endloop
  endfacet
  facet normal 0.000000e+00 0.000000e+00 -1.000000e+00
    outer loop
      vertex -4.040523e+00 -1.050000e+01 0.000000e+00
      vertex -5.540523e+00 -1.400000e+01 0.000000e+00
      vertex -5.540523e+00 -1.050000e+01 0.000000e+00
    endloop
  endfacet
  facet normal 0.000000e+00 0.000000e+00 -1.000000e+00
    outer loop
      vertex -5.540523e+00 -1.400000e+01 0.000000e+00
      vertex -4.040523e+00 -1.050000e+01 0.000000e+00
      vertex -4.040523e+00 -1.250000e+01 0.000000e+00
    endloop
  endfacet
  facet normal 0.000000e+00 0.000000e+00 -1.000000e+00
    outer loop
      vertex -5.540523e+00 -1.400000e+01 0.000000e+00
      vertex -4.040523e+00 -1.250000e+01 0.000000e+00
      vertex -1.140523e+00 -1.400000e+01 0.000000e+00
    endloop
  endfacet
  facet normal 0.000000e+00 0.000000e+00 -1.000000e+00
    outer loop
      vertex -1.140523e+00 -1.400000e+01 0.000000e+00
      vertex -4.040523e+00 -1.250000e+01 0.000000e+00
      vertex -2.640523e+00 -1.250000e+01 0.000000e+00
    endloop
  endfacet
  facet normal 0.000000e+00 0.000000e+00 -1.000000e+00
    outer loop
      vertex -1.140523e+00 -1.400000e+01 0.000000e+00
      vertex -2.640523e+00 -1.250000e+01 0.000000e+00
      vertex -1.140523e+00 -3.896124e+00 0.000000e+00
    endloop
  endfacet
  facet normal 0.000000e+00 0.000000e+00 -1.000000e+00
    outer loop
      vertex -1.140523e+00 -1.400000e+01 0.000000e+00
      vertex -1.140523e+00 -3.896124e+00 0.000000e+00
      vertex -1.140523e+00 -1.200000e+01 0.000000e+00
    endloop
  endfacet
  facet normal 0.000000e+00 0.000000e+00 -1.000000e+00
    outer loop
      vertex -5.540523e+00 1.400000e+01 0.000000e+00
      vertex -4.040523e+00 1.250000e+01 0.000000e+00
      vertex -5.540523e+00 1.050000e+01 0.000000e+00
    endloop
  endfacet
  facet normal 0.000000e+00 0.000000e+00 -1.000000e+00
    outer loop
      vertex -4.040523e+00 1.250000e+01 0.000000e+00
      vertex -5.540523e+00 1.400000e+01 0.000000e+00
      vertex -1.140523e+00 1.400000e+01 0.000000e+00
    endloop
  endfacet
  facet normal 0.000000e+00 0.000000e+00 -1.000000e+00
    outer loop
      vertex -4.040523e+00 1.250000e+01 0.000000e+00
      vertex -1.140523e+00 1.400000e+01 0.000000e+00
      vertex -2.640523e+00 1.250000e+01 0.000000e+00
    endloop
  endfacet
  facet normal 0.000000e+00 0.000000e+00 -1.000000e+00
    outer loop
      vertex -2.640523e+00 1.250000e+01 0.000000e+00
      vertex -1.140523e+00 1.400000e+01 0.000000e+00
      vertex -2.640523e+00 2.549257e+00 0.000000e+00
    endloop
  endfacet
  facet normal 0.000000e+00 0.000000e+00 -1.000000e+00
    outer loop
      vertex -2.640523e+00 2.549257e+00 0.000000e+00
      vertex -1.140523e+00 1.400000e+01 0.000000e+00
      vertex -1.140523e+00 3.897312e+00 0.000000e+00
    endloop
  endfacet
  facet normal 0.000000e+00 0.000000e+00 -1.000000e+00
    outer loop
      vertex -2.640523e+00 2.549257e+00 0.000000e+00
      vertex -1.140523e+00 3.897312e+00 0.000000e+00
      vertex -5.052745e-01 2.549257e+00 0.000000e+00
    endloop
  endfacet
  facet normal 0.000000e+00 0.000000e+00 -1.000000e+00
    outer loop
      vertex -5.052745e-01 2.549257e+00 0.000000e+00
      vertex -1.140523e+00 3.897312e+00 0.000000e+00
      vertex -7.171886e-01 4.148508e+00 0.000000e+00
    endloop
  endfacet
  facet normal 0.000000e+00 0.000000e+00 -1.000000e+00
    outer loop
      vertex -5.052745e-01 2.549257e+00 0.000000e+00
      vertex -7.171886e-01 4.148508e+00 0.000000e+00
      vertex 4.170620e-01 4.466985e+00 0.000000e+00
    endloop
  endfacet
  facet normal 0.000000e+00 0.000000e+00 -1.000000e+00
    outer loop
      vertex -5.052745e-01 2.549257e+00 0.000000e+00
      vertex 4.170620e-01 4.466985e+00 0.000000e+00
      vertex -1.215694e-01 2.757740e+00 0.000000e+00
    endloop
  endfacet
  facet normal 0.000000e+00 0.000000e+00 -1.000000e+00
    outer loop
      vertex -1.215694e-01 2.757740e+00 0.000000e+00
      vertex 4.170620e-01 4.466985e+00 0.000000e+00
      vertex 6.324294e-01 2.969450e+00 0.000000e+00
    endloop
  endfacet
  facet normal 0.000000e+00 0.000000e+00 -1.000000e+00
    outer loop
      vertex 6.324294e-01 2.969450e+00 0.000000e+00
      vertex 4.170620e-01 4.466985e+00 0.000000e+00
      vertex 1.595093e+00 4.481046e+00 0.000000e+00
    endloop
  endfacet
  facet normal 0.000000e+00 0.000000e+00 -1.000000e+00
    outer loop
      vertex 6.324294e-01 2.969450e+00 0.000000e+00
      vertex 1.595093e+00 4.481046e+00 0.000000e+00
      vertex 1.415530e+00 2.978796e+00 0.000000e+00
    endloop
  endfacet
  facet normal 0.000000e+00 0.000000e+00 -1.000000e+00
    outer loop
      vertex 1.415530e+00 2.978796e+00 0.000000e+00
      vertex 1.595093e+00 4.481046e+00 0.000000e+00
      vertex 2.174367e+00 2.785143e+00 0.000000e+00
    endloop
  endfacet
  facet normal 0.000000e+00 0.000000e+00 -1.000000e+00
    outer loop
      vertex 2.174367e+00 2.785143e+00 0.000000e+00
      vertex 1.595093e+00 4.481046e+00 0.000000e+00
      vertex 2.736622e+00 4.189731e+00 0.000000e+00
    endloop
  endfacet
  facet normal 0.000000e+00 0.000000e+00 -1.000000e+00
    outer loop
      vertex 2.174367e+00 2.785143e+00 0.000000e+00
      vertex 2.736622e+00 4.189731e+00 0.000000e+00
      vertex 2.857227e+00 2.401687e+00 0.000000e+00
    endloop
  endfacet
  facet normal 0.000000e+00 0.000000e+00 -1.000000e+00
    outer loop
      vertex 2.857227e+00 2.401687e+00 0.000000e+00
      vertex 2.736622e+00 4.189731e+00 0.000000e+00
      vertex 3.763857e+00 3.612892e+00 0.000000e+00
    endloop
  endfacet
  facet normal 0.000000e+00 0.000000e+00 -1.000000e+00
    outer loop
      vertex 2.857227e+00 2.401687e+00 0.000000e+00
      vertex 3.763857e+00 3.612892e+00 0.000000e+00
      vertex 3.417571e+00 1.854560e+00 0.000000e+00
    endloop
  endfacet
  facet normal 0.000000e+00 0.000000e+00 -1.000000e+00
    outer loop
      vertex 3.417571e+00 1.854560e+00 0.000000e+00
      vertex 3.763857e+00 3.612892e+00 0.000000e+00
      vertex 3.817217e+00 1.181047e+00 0.000000e+00
    endloop
  endfacet
  facet normal 0.000000e+00 0.000000e+00 -1.000000e+00
    outer loop
      vertex 3.817217e+00 1.181047e+00 0.000000e+00
      vertex 3.763857e+00 3.612892e+00 0.000000e+00
      vertex 4.606793e+00 2.789840e+00 0.000000e+00
    endloop
  endfacet
  facet normal 0.000000e+00 0.000000e+00 -1.000000e+00
    outer loop
      vertex 3.817217e+00 1.181047e+00 0.000000e+00
      vertex 4.606793e+00 2.789840e+00 0.000000e+00
      vertex 4.028927e+00 4.270485e-01 0.000000e+00
    endloop
  endfacet
  facet normal 0.000000e+00 0.000000e+00 -1.000000e+00
    outer loop
      vertex 4.028927e+00 4.270485e-01 0.000000e+00
      vertex 4.606793e+00 2.789840e+00 0.000000e+00
      vertex 4.034024e+00 -2.123415e-07 0.000000e+00
    endloop
  endfacet
  facet normal 0.000000e+00 0.000000e+00 -1.000000e+00
    outer loop
      vertex 4.034024e+00 -2.123415e-07 0.000000e+00
      vertex 4.606793e+00 2.789840e+00 0.000000e+00
      vertex 5.534131e+00 -2.123415e-07 0.000000e+00
    endloop
  endfacet
  facet normal 0.000000e+00 0.000000e+00 -1.000000e+00
    outer loop
      vertex 5.534131e+00 -2.123415e-07 0.000000e+00
      vertex 4.606793e+00 2.789840e+00 0.000000e+00
      vertex 5.207985e+00 1.776666e+00 0.000000e+00
    endloop
  endfacet
  facet normal 0.000000e+00 0.000000e+00 -1.000000e+00
    outer loop
      vertex 5.534131e+00 -2.123415e-07 0.000000e+00
      vertex 5.207985e+00 1.776666e+00 0.000000e+00
      vertex 5.526464e+00 6.424148e-01 0.000000e+00
    endloop
  endfacet
  facet normal 0.000000e+00 0.000000e+00 -1.000000e+00
    outer loop
      vertex -4.040523e+00 1.050000e+01 0.000000e+00
      vertex -5.540523e+00 1.050000e+01 0.000000e+00
      vertex -4.040523e+00 1.250000e+01 0.000000e+00
    endloop
  endfacet
  facet normal -4.896287e-01 -8.719311e-01 -0.000000e+00
    outer loop
      vertex -6.176679e-01 -4.189731e+00 5.000000e+00
      vertex -1.140523e+00 -3.896124e+00 0.000000e+00
      vertex -6.176679e-01 -4.189731e+00 0.000000e+00
    endloop
  endfacet
  facet normal -4.896287e-01 -8.719311e-01 -0.000000e+00
    outer loop
      vertex -1.140523e+00 -3.896124e+00 0.000000e+00
      vertex -6.176679e-01 -4.189731e+00 5.000000e+00
      vertex -1.140523e+00 -3.896124e+00 5.000000e+00
    endloop
  endfacet
  facet normal 1.000000e+00 0.000000e+00 0.000000e+00
    outer loop
      vertex -1.140523e+00 -3.896124e+00 0.000000e+00
      vertex -1.140523e+00 -1.200000e+01 5.000000e+00
      vertex -1.140523e+00 -1.200000e+01 0.000000e+00
    endloop
  endfacet
  facet normal 1.000000e+00 0.000000e+00 0.000000e+00
    outer loop
      vertex -1.140523e+00 -1.200000e+01 5.000000e+00
      vertex -1.140523e+00 -3.896124e+00 0.000000e+00
      vertex -1.140523e+00 -3.896124e+00 5.000000e+00
    endloop
  endfacet
  facet normal 1.000000e+00 0.000000e+00 0.000000e+00
    outer loop
      vertex -1.140523e+00 -1.200000e+01 0.000000e+00
      vertex -1.140523e+00 -1.400000e+01 5.000000e+00
      vertex -1.140523e+00 -1.400000e+01 0.000000e+00
    endloop
  endfacet
  facet normal 1.000000e+00 0.000000e+00 0.000000e+00
    outer loop
      vertex -1.140523e+00 -1.400000e+01 5.000000e+00
      vertex -1.140523e+00 -1.200000e+01 0.000000e+00
      vertex -1.140523e+00 -1.200000e+01 5.000000e+00
    endloop
  endfacet
  facet normal 2.472726e-01 9.689460e-01 0.000000e+00
    outer loop
      vertex -5.541301e-02 -2.785142e+00 5.000000e+00
      vertex 7.034247e-01 -2.978796e+00 0.000000e+00
      vertex -5.541301e-02 -2.785142e+00 0.000000e+00
    endloop
  endfacet
  facet normal 2.472726e-01 9.689460e-01 0.000000e+00
    outer loop
      vertex 7.034247e-01 -2.978796e+00 0.000000e+00
      vertex -5.541301e-02 -2.785142e+00 5.000000e+00
      vertex 7.034247e-01 -2.978796e+00 5.000000e+00
    endloop
  endfacet
  facet normal -1.193467e-02 9.999288e-01 0.000000e+00
    outer loop
      vertex 7.034247e-01 -2.978796e+00 5.000000e+00
      vertex 1.486526e+00 -2.969449e+00 0.000000e+00
      vertex 7.034247e-01 -2.978796e+00 0.000000e+00
    endloop
  endfacet
  facet normal -1.193467e-02 9.999288e-01 0.000000e+00
    outer loop
      vertex 1.486526e+00 -2.969449e+00 0.000000e+00
      vertex 7.034247e-01 -2.978796e+00 5.000000e+00
      vertex 1.486526e+00 -2.969449e+00 5.000000e+00
    endloop
  endfacet
  facet normal 4.896287e-01 8.719311e-01 0.000000e+00
    outer loop
      vertex -5.052745e-01 -2.532525e+00 5.000000e+00
      vertex -5.541301e-02 -2.785142e+00 0.000000e+00
      vertex -5.052745e-01 -2.532525e+00 0.000000e+00
    endloop
  endfacet
  facet normal 4.896287e-01 8.719311e-01 0.000000e+00
    outer loop
      vertex -5.541301e-02 -2.785142e+00 0.000000e+00
      vertex -5.052745e-01 -2.532525e+00 5.000000e+00
      vertex -5.541301e-02 -2.785142e+00 5.000000e+00
    endloop
  endfacet
  facet normal 8.155094e-32 -3.189794e-31 1.000000e+00
    outer loop
      vertex -5.540523e+00 -1.400000e+01 5.000000e+00
      vertex -4.040523e+00 -1.250000e+01 5.000000e+00
      vertex -5.540523e+00 -1.050000e+01 5.000000e+00
    endloop
  endfacet
  facet normal 8.155094e-32 -3.189794e-31 1.000000e+00
    outer loop
      vertex -4.040523e+00 -1.250000e+01 5.000000e+00
      vertex -5.540523e+00 -1.400000e+01 5.000000e+00
      vertex -1.140523e+00 -1.400000e+01 5.000000e+00
    endloop
  endfacet
  facet normal 8.155094e-32 -3.189794e-31 1.000000e+00
    outer loop
      vertex -4.040523e+00 -1.250000e+01 5.000000e+00
      vertex -1.140523e+00 -1.400000e+01 5.000000e+00
      vertex -2.640523e+00 -1.250000e+01 5.000000e+00
    endloop
  endfacet
  facet normal 8.155094e-32 -3.189794e-31 1.000000e+00
    outer loop
      vertex -2.640523e+00 -1.250000e+01 5.000000e+00
      vertex -1.140523e+00 -1.400000e+01 5.000000e+00
      vertex -2.640523e+00 -2.532525e+00 5.000000e+00
    endloop
  endfacet
  facet normal 8.155094e-32 -3.189794e-31 1.000000e+00
    outer loop
      vertex -2.640523e+00 -2.532525e+00 5.000000e+00
      vertex -1.140523e+00 -1.400000e+01 5.000000e+00
      vertex -1.140523e+00 -3.896124e+00 5.000000e+00
    endloop
  endfacet
  facet normal 8.155094e-32 -3.189794e-31 1.000000e+00
    outer loop
      vertex -2.640523e+00 -2.532525e+00 5.000000e+00
      vertex -1.140523e+00 -3.896124e+00 5.000000e+00
      vertex -5.052745e-01 -2.532525e+00 5.000000e+00
    endloop
  endfacet
  facet normal 8.155094e-32 -3.189794e-31 1.000000e+00
    outer loop
      vertex -1.140523e+00 -3.896124e+00 5.000000e+00
      vertex -1.140523e+00 -1.400000e+01 5.000000e+00
      vertex -1.140523e+00 -1.200000e+01 5.000000e+00
    endloop
  endfacet
  facet normal 8.155094e-32 -3.189794e-31 1.000000e+00
    outer loop
      vertex -5.052745e-01 -2.532525e+00 5.000000e+00
      vertex -1.140523e+00 -3.896124e+00 5.000000e+00
      vertex -6.176679e-01 -4.189731e+00 5.000000e+00
    endloop
  endfacet
  facet normal 8.155094e-32 -3.189794e-31 1.000000e+00
    outer loop
      vertex -5.052745e-01 -2.532525e+00 5.000000e+00
      vertex -6.176679e-01 -4.189731e+00 5.000000e+00
      vertex 5.238612e-01 -4.481046e+00 5.000000e+00
    endloop
  endfacet
  facet normal 8.155094e-32 -3.189794e-31 1.000000e+00
    outer loop
      vertex -5.052745e-01 -2.532525e+00 5.000000e+00
      vertex 5.238612e-01 -4.481046e+00 5.000000e+00
      vertex -5.541301e-02 -2.785142e+00 5.000000e+00
    endloop
  endfacet
  facet normal 8.155094e-32 -3.189794e-31 1.000000e+00
    outer loop
      vertex -5.541301e-02 -2.785142e+00 5.000000e+00
      vertex 5.238612e-01 -4.481046e+00 5.000000e+00
      vertex 7.034247e-01 -2.978796e+00 5.000000e+00
    endloop
  endfacet
  facet normal 8.155094e-32 -3.189794e-31 1.000000e+00
    outer loop
      vertex 7.034247e-01 -2.978796e+00 5.000000e+00
      vertex 5.238612e-01 -4.481046e+00 5.000000e+00
      vertex 1.701892e+00 -4.466986e+00 5.000000e+00
    endloop
  endfacet
  facet normal 8.155094e-32 -3.189794e-31 1.000000e+00
    outer loop
      vertex 7.034247e-01 -2.978796e+00 5.000000e+00
      vertex 1.701892e+00 -4.466986e+00 5.000000e+00
      vertex 1.486526e+00 -2.969449e+00 5.000000e+00
    endloop
  endfacet
  facet normal 8.155094e-32 -3.189794e-31 1.000000e+00
    outer loop
      vertex 1.486526e+00 -2.969449e+00 5.000000e+00
      vertex 1.701892e+00 -4.466986e+00 5.000000e+00
      vertex 2.240525e+00 -2.757739e+00 5.000000e+00
    endloop
  endfacet
  facet normal 8.155094e-32 -3.189794e-31 1.000000e+00
    outer loop
      vertex 2.240525e+00 -2.757739e+00 5.000000e+00
      vertex 1.701892e+00 -4.466986e+00 5.000000e+00
      vertex 2.836144e+00 -4.148507e+00 5.000000e+00
    endloop
  endfacet
  facet normal 8.155094e-32 -3.189794e-31 1.000000e+00
    outer loop
      vertex 2.240525e+00 -2.757739e+00 5.000000e+00
      vertex 2.836144e+00 -4.148507e+00 5.000000e+00
      vertex 2.914037e+00 -2.358094e+00 5.000000e+00
    endloop
  endfacet
  facet normal 8.155094e-32 -3.189794e-31 1.000000e+00
    outer loop
      vertex 2.914037e+00 -2.358094e+00 5.000000e+00
      vertex 2.836144e+00 -4.148507e+00 5.000000e+00
      vertex 3.849318e+00 -3.547316e+00 5.000000e+00
    endloop
  endfacet
  facet normal 8.155094e-32 -3.189794e-31 1.000000e+00
    outer loop
      vertex 2.914037e+00 -2.358094e+00 5.000000e+00
      vertex 3.849318e+00 -3.547316e+00 5.000000e+00
      vertex 3.461164e+00 -1.797749e+00 5.000000e+00
    endloop
  endfacet
  facet normal 8.155094e-32 -3.189794e-31 1.000000e+00
    outer loop
      vertex 3.461164e+00 -1.797749e+00 5.000000e+00
      vertex 3.849318e+00 -3.547316e+00 5.000000e+00
      vertex 3.844620e+00 -1.114889e+00 5.000000e+00
    endloop
  endfacet
  facet normal 8.155094e-32 -3.189794e-31 1.000000e+00
    outer loop
      vertex 3.844620e+00 -1.114889e+00 5.000000e+00
      vertex 3.849318e+00 -3.547316e+00 5.000000e+00
      vertex 4.038273e+00 -3.560526e-01 5.000000e+00
    endloop
  endfacet
  facet normal 8.155094e-32 -3.189794e-31 1.000000e+00
    outer loop
      vertex 4.038273e+00 -3.560526e-01 5.000000e+00
      vertex 3.849318e+00 -3.547316e+00 5.000000e+00
      vertex 4.672369e+00 -2.704379e+00 5.000000e+00
    endloop
  endfacet
  facet normal 8.155094e-32 -3.189794e-31 1.000000e+00
    outer loop
      vertex 4.038273e+00 -3.560526e-01 5.000000e+00
      vertex 4.672369e+00 -2.704379e+00 5.000000e+00
      vertex 4.606793e+00 2.789840e+00 5.000000e+00
    endloop
  endfacet
  facet normal 8.155094e-32 -3.189794e-31 1.000000e+00
    outer loop
      vertex 4.606793e+00 2.789840e+00 5.000000e+00
      vertex 4.672369e+00 -2.704379e+00 5.000000e+00
      vertex 5.207985e+00 1.776666e+00 5.000000e+00
    endloop
  endfacet
  facet normal 8.155094e-32 -3.189794e-31 1.000000e+00
    outer loop
      vertex 5.207985e+00 1.776666e+00 5.000000e+00
      vertex 4.672369e+00 -2.704379e+00 5.000000e+00
      vertex 5.249208e+00 -1.677145e+00 5.000000e+00
    endloop
  endfacet
  facet normal 8.155094e-32 -3.189794e-31 1.000000e+00
    outer loop
      vertex 5.207985e+00 1.776666e+00 5.000000e+00
      vertex 5.249208e+00 -1.677145e+00 5.000000e+00
      vertex 5.526464e+00 6.424148e-01 5.000000e+00
    endloop
  endfacet
  facet normal 8.155094e-32 -3.189794e-31 1.000000e+00
    outer loop
      vertex 5.526464e+00 6.424148e-01 5.000000e+00
      vertex 5.249208e+00 -1.677145e+00 5.000000e+00
      vertex 5.534131e+00 -2.123415e-07 5.000000e+00
    endloop
  endfacet
  facet normal 8.155094e-32 -3.189794e-31 1.000000e+00
    outer loop
      vertex 5.534131e+00 -2.123415e-07 5.000000e+00
      vertex 5.249208e+00 -1.677145e+00 5.000000e+00
      vertex 5.540523e+00 -5.356152e-01 5.000000e+00
    endloop
  endfacet
  facet normal 8.155094e-32 -3.189794e-31 1.000000e+00
    outer loop
      vertex -2.640523e+00 2.549257e+00 5.000000e+00
      vertex -1.140523e+00 3.897312e+00 5.000000e+00
      vertex -2.640523e+00 1.250000e+01 5.000000e+00
    endloop
  endfacet
  facet normal 8.155094e-32 -3.189794e-31 1.000000e+00
    outer loop
      vertex -1.140523e+00 3.897312e+00 5.000000e+00
      vertex -2.640523e+00 2.549257e+00 5.000000e+00
      vertex -5.052745e-01 2.549257e+00 5.000000e+00
    endloop
  endfacet
  facet normal 8.155094e-32 -3.189794e-31 1.000000e+00
    outer loop
      vertex -1.140523e+00 3.897312e+00 5.000000e+00
      vertex -5.052745e-01 2.549257e+00 5.000000e+00
      vertex -7.171886e-01 4.148508e+00 5.000000e+00
    endloop
  endfacet
  facet normal 8.155094e-32 -3.189794e-31 1.000000e+00
    outer loop
      vertex -7.171886e-01 4.148508e+00 5.000000e+00
      vertex -5.052745e-01 2.549257e+00 5.000000e+00
      vertex 4.170620e-01 4.466985e+00 5.000000e+00
    endloop
  endfacet
  facet normal 8.155094e-32 -3.189794e-31 1.000000e+00
    outer loop
      vertex 4.170620e-01 4.466985e+00 5.000000e+00
      vertex -5.052745e-01 2.549257e+00 5.000000e+00
      vertex -1.215694e-01 2.757740e+00 5.000000e+00
    endloop
  endfacet
  facet normal 8.155094e-32 -3.189794e-31 1.000000e+00
    outer loop
      vertex 4.170620e-01 4.466985e+00 5.000000e+00
      vertex -1.215694e-01 2.757740e+00 5.000000e+00
      vertex 6.324294e-01 2.969450e+00 5.000000e+00
    endloop
  endfacet
  facet normal 8.155094e-32 -3.189794e-31 1.000000e+00
    outer loop
      vertex 4.170620e-01 4.466985e+00 5.000000e+00
      vertex 6.324294e-01 2.969450e+00 5.000000e+00
      vertex 1.595093e+00 4.481046e+00 5.000000e+00
    endloop
  endfacet
  facet normal 8.155094e-32 -3.189794e-31 1.000000e+00
    outer loop
      vertex 1.595093e+00 4.481046e+00 5.000000e+00
      vertex 6.324294e-01 2.969450e+00 5.000000e+00
      vertex 1.415530e+00 2.978796e+00 5.000000e+00
    endloop
  endfacet
  facet normal 8.155094e-32 -3.189794e-31 1.000000e+00
    outer loop
      vertex 1.595093e+00 4.481046e+00 5.000000e+00
      vertex 1.415530e+00 2.978796e+00 5.000000e+00
      vertex 2.174367e+00 2.785143e+00 5.000000e+00
    endloop
  endfacet
  facet normal 8.155094e-32 -3.189794e-31 1.000000e+00
    outer loop
      vertex 1.595093e+00 4.481046e+00 5.000000e+00
      vertex 2.174367e+00 2.785143e+00 5.000000e+00
      vertex 2.736622e+00 4.189731e+00 5.000000e+00
    endloop
  endfacet
  facet normal 8.155094e-32 -3.189794e-31 1.000000e+00
    outer loop
      vertex 2.736622e+00 4.189731e+00 5.000000e+00
      vertex 2.174367e+00 2.785143e+00 5.000000e+00
      vertex 2.857227e+00 2.401687e+00 5.000000e+00
    endloop
  endfacet
  facet normal 8.155094e-32 -3.189794e-31 1.000000e+00
    outer loop
      vertex 2.736622e+00 4.189731e+00 5.000000e+00
      vertex 2.857227e+00 2.401687e+00 5.000000e+00
      vertex 3.763857e+00 3.612892e+00 5.000000e+00
    endloop
  endfacet
  facet normal 8.155094e-32 -3.189794e-31 1.000000e+00
    outer loop
      vertex 3.763857e+00 3.612892e+00 5.000000e+00
      vertex 2.857227e+00 2.401687e+00 5.000000e+00
      vertex 3.417571e+00 1.854560e+00 5.000000e+00
    endloop
  endfacet
  facet normal 8.155094e-32 -3.189794e-31 1.000000e+00
    outer loop
      vertex 3.763857e+00 3.612892e+00 5.000000e+00
      vertex 3.417571e+00 1.854560e+00 5.000000e+00
      vertex 3.817217e+00 1.181047e+00 5.000000e+00
    endloop
  endfacet
  facet normal 8.155094e-32 -3.189794e-31 1.000000e+00
    outer loop
      vertex 3.763857e+00 3.612892e+00 5.000000e+00
      vertex 3.817217e+00 1.181047e+00 5.000000e+00
      vertex 4.606793e+00 2.789840e+00 5.000000e+00
    endloop
  endfacet
  facet normal 8.155094e-32 -3.189794e-31 1.000000e+00
    outer loop
      vertex 4.606793e+00 2.789840e+00 5.000000e+00
      vertex 3.817217e+00 1.181047e+00 5.000000e+00
      vertex 4.028927e+00 4.270485e-01 5.000000e+00
    endloop
  endfacet
  facet normal 8.155094e-32 -3.189794e-31 1.000000e+00
    outer loop
      vertex 4.606793e+00 2.789840e+00 5.000000e+00
      vertex 4.028927e+00 4.270485e-01 5.000000e+00
      vertex 4.034024e+00 -2.123415e-07 5.000000e+00
    endloop
  endfacet
  facet normal 8.155094e-32 -3.189794e-31 1.000000e+00
    outer loop
      vertex 4.606793e+00 2.789840e+00 5.000000e+00
      vertex 4.034024e+00 -2.123415e-07 5.000000e+00
      vertex 4.038273e+00 -3.560526e-01 5.000000e+00
    endloop
  endfacet
  facet normal 8.155094e-32 -3.189794e-31 1.000000e+00
    outer loop
      vertex -4.040523e+00 1.050000e+01 5.000000e+00
      vertex -5.540523e+00 1.400000e+01 5.000000e+00
      vertex -5.540523e+00 1.050000e+01 5.000000e+00
    endloop
  endfacet
  facet normal 8.155094e-32 -3.189794e-31 1.000000e+00
    outer loop
      vertex -5.540523e+00 1.400000e+01 5.000000e+00
      vertex -4.040523e+00 1.050000e+01 5.000000e+00
      vertex -4.040523e+00 1.250000e+01 5.000000e+00
    endloop
  endfacet
  facet normal 8.155094e-32 -3.189794e-31 1.000000e+00
    outer loop
      vertex -5.540523e+00 1.400000e+01 5.000000e+00
      vertex -4.040523e+00 1.250000e+01 5.000000e+00
      vertex -1.140523e+00 1.400000e+01 5.000000e+00
    endloop
  endfacet
  facet normal 8.155094e-32 -3.189794e-31 1.000000e+00
    outer loop
      vertex -1.140523e+00 1.400000e+01 5.000000e+00
      vertex -4.040523e+00 1.250000e+01 5.000000e+00
      vertex -2.640523e+00 1.250000e+01 5.000000e+00
    endloop
  endfacet
  facet normal 8.155094e-32 -3.189794e-31 1.000000e+00
    outer loop
      vertex -1.140523e+00 1.400000e+01 5.000000e+00
      vertex -2.640523e+00 1.250000e+01 5.000000e+00
      vertex -1.140523e+00 3.897312e+00 5.000000e+00
    endloop
  endfacet
  facet normal 8.155094e-32 -3.189794e-31 1.000000e+00
    outer loop
      vertex -4.040523e+00 -1.050000e+01 5.000000e+00
      vertex -5.540523e+00 -1.050000e+01 5.000000e+00
      vertex -4.040523e+00 -1.250000e+01 5.000000e+00
    endloop
  endfacet
  facet normal -7.154955e-01 6.986173e-01 0.000000e+00
    outer loop
      vertex 3.461164e+00 -1.797749e+00 5.000000e+00
      vertex 2.914037e+00 -2.358094e+00 0.000000e+00
      vertex 2.914037e+00 -2.358094e+00 5.000000e+00
    endloop
  endfacet
  facet normal -7.154955e-01 6.986173e-01 0.000000e+00
    outer loop
      vertex 2.914037e+00 -2.358094e+00 0.000000e+00
      vertex 3.461164e+00 -1.797749e+00 5.000000e+00
      vertex 3.461164e+00 -1.797749e+00 0.000000e+00
    endloop
  endfacet
  facet normal -5.103001e-01 8.599964e-01 0.000000e+00
    outer loop
      vertex 2.240525e+00 -2.757739e+00 5.000000e+00
      vertex 2.914037e+00 -2.358094e+00 0.000000e+00
      vertex 2.240525e+00 -2.757739e+00 0.000000e+00
    endloop
  endfacet
  facet normal -5.103001e-01 8.599964e-01 0.000000e+00
    outer loop
      vertex 2.914037e+00 -2.358094e+00 0.000000e+00
      vertex 2.240525e+00 -2.757739e+00 5.000000e+00
      vertex 2.914037e+00 -2.358094e+00 5.000000e+00
    endloop
  endfacet
  facet normal -8.719311e-01 4.896287e-01 0.000000e+00
    outer loop
      vertex 3.844620e+00 -1.114889e+00 5.000000e+00
      vertex 3.461164e+00 -1.797749e+00 0.000000e+00
      vertex 3.461164e+00 -1.797749e+00 5.000000e+00
    endloop
  endfacet
  facet normal -8.719311e-01 4.896287e-01 0.000000e+00
    outer loop
      vertex 3.461164e+00 -1.797749e+00 0.000000e+00
      vertex 3.844620e+00 -1.114889e+00 5.000000e+00
      vertex 3.844620e+00 -1.114889e+00 0.000000e+00
    endloop
  endfacet
  facet normal -9.689460e-01 2.472726e-01 0.000000e+00
    outer loop
      vertex 4.038273e+00 -3.560526e-01 5.000000e+00
      vertex 3.844620e+00 -1.114889e+00 0.000000e+00
      vertex 3.844620e+00 -1.114889e+00 5.000000e+00
    endloop
  endfacet
  facet normal -9.689460e-01 2.472726e-01 0.000000e+00
    outer loop
      vertex 3.844620e+00 -1.114889e+00 0.000000e+00
      vertex 4.038273e+00 -3.560526e-01 5.000000e+00
      vertex 4.038273e+00 -3.560526e-01 0.000000e+00
    endloop
  endfacet
  facet normal 0.000000e+00 1.000000e+00 0.000000e+00
    outer loop
      vertex -2.640523e+00 -2.532525e+00 5.000000e+00
      vertex -5.052745e-01 -2.532525e+00 0.000000e+00
      vertex -2.640523e+00 -2.532525e+00 0.000000e+00
    endloop
  endfacet
  facet normal 0.000000e+00 1.000000e+00 0.000000e+00
    outer loop
      vertex -5.052745e-01 -2.532525e+00 0.000000e+00
      vertex -2.640523e+00 -2.532525e+00 5.000000e+00
      vertex -5.052745e-01 -2.532525e+00 5.000000e+00
    endloop
  endfacet
  facet normal -1.000000e+00 0.000000e+00 0.000000e+00
    outer loop
      vertex -2.640523e+00 -2.532525e+00 5.000000e+00
      vertex -2.640523e+00 -1.250000e+01 0.000000e+00
      vertex -2.640523e+00 -1.250000e+01 5.000000e+00
    endloop
  endfacet
  facet normal -1.000000e+00 0.000000e+00 0.000000e+00
    outer loop
      vertex -2.640523e+00 -1.250000e+01 0.000000e+00
      vertex -2.640523e+00 -2.532525e+00 5.000000e+00
      vertex -2.640523e+00 -2.532525e+00 0.000000e+00
    endloop
  endfacet
  facet normal 0.000000e+00 1.000000e+00 0.000000e+00
    outer loop
      vertex -4.040523e+00 -1.250000e+01 5.000000e+00
      vertex -2.640523e+00 -1.250000e+01 0.000000e+00
      vertex -4.040523e+00 -1.250000e+01 0.000000e+00
    endloop
  endfacet
  facet normal 0.000000e+00 1.000000e+00 0.000000e+00
    outer loop
      vertex -2.640523e+00 -1.250000e+01 0.000000e+00
      vertex -4.040523e+00 -1.250000e+01 5.000000e+00
      vertex -2.640523e+00 -1.250000e+01 5.000000e+00
    endloop
  endfacet
  facet normal 1.000000e+00 0.000000e+00 0.000000e+00
    outer loop
      vertex -4.040523e+00 -1.050000e+01 0.000000e+00
      vertex -4.040523e+00 -1.250000e+01 5.000000e+00
      vertex -4.040523e+00 -1.250000e+01 0.000000e+00
    endloop
  endfacet
  facet normal 1.000000e+00 0.000000e+00 0.000000e+00
    outer loop
      vertex -4.040523e+00 -1.250000e+01 5.000000e+00
      vertex -4.040523e+00 -1.050000e+01 0.000000e+00
      vertex -4.040523e+00 -1.050000e+01 5.000000e+00
    endloop
  endfacet
  facet normal -2.703286e-01 9.627681e-01 0.000000e+00
    outer loop
      vertex 1.486526e+00 -2.969449e+00 5.000000e+00
      vertex 2.240525e+00 -2.757739e+00 0.000000e+00
      vertex 1.486526e+00 -2.969449e+00 0.000000e+00
    endloop
  endfacet
  facet normal -2.703286e-01 9.627681e-01 0.000000e+00
    outer loop
      vertex 2.240525e+00 -2.757739e+00 0.000000e+00
      vertex 1.486526e+00 -2.969449e+00 5.000000e+00
      vertex 2.240525e+00 -2.757739e+00 5.000000e+00
    endloop
  endfacet
  facet normal 0.000000e+00 1.000000e+00 0.000000e+00
    outer loop
      vertex -5.540523e+00 -1.050000e+01 5.000000e+00
      vertex -4.040523e+00 -1.050000e+01 0.000000e+00
      vertex -5.540523e+00 -1.050000e+01 0.000000e+00
    endloop
  endfacet
  facet normal 0.000000e+00 1.000000e+00 0.000000e+00
    outer loop
      vertex -4.040523e+00 -1.050000e+01 0.000000e+00
      vertex -5.540523e+00 -1.050000e+01 5.000000e+00
      vertex -4.040523e+00 -1.050000e+01 5.000000e+00
    endloop
  endfacet
  facet normal -1.000000e+00 0.000000e+00 0.000000e+00
    outer loop
      vertex -5.540523e+00 -1.050000e+01 5.000000e+00
      vertex -5.540523e+00 -1.400000e+01 0.000000e+00
      vertex -5.540523e+00 -1.400000e+01 5.000000e+00
    endloop
  endfacet
  facet normal -1.000000e+00 0.000000e+00 0.000000e+00
    outer loop
      vertex -5.540523e+00 -1.400000e+01 0.000000e+00
      vertex -5.540523e+00 -1.050000e+01 5.000000e+00
      vertex -5.540523e+00 -1.050000e+01 0.000000e+00
    endloop
  endfacet
  facet normal -5.103001e-01 8.599964e-01 0.000000e+00
    outer loop
      vertex -1.140523e+00 3.897312e+00 5.000000e+00
      vertex -7.171886e-01 4.148508e+00 0.000000e+00
      vertex -1.140523e+00 3.897312e+00 0.000000e+00
    endloop
  endfacet
  facet normal -5.103001e-01 8.599964e-01 0.000000e+00
    outer loop
      vertex -7.171886e-01 4.148508e+00 0.000000e+00
      vertex -1.140523e+00 3.897312e+00 5.000000e+00
      vertex -7.171886e-01 4.148508e+00 5.000000e+00
    endloop
  endfacet
  facet normal -0.000000e+00 -1.000000e+00 -0.000000e+00
    outer loop
      vertex -1.140523e+00 -1.400000e+01 5.000000e+00
      vertex -5.540523e+00 -1.400000e+01 0.000000e+00
      vertex -1.140523e+00 -1.400000e+01 0.000000e+00
    endloop
  endfacet
  facet normal -0.000000e+00 -1.000000e+00 -0.000000e+00
    outer loop
      vertex -5.540523e+00 -1.400000e+01 0.000000e+00
      vertex -1.140523e+00 -1.400000e+01 5.000000e+00
      vertex -5.540523e+00 -1.400000e+01 5.000000e+00
    endloop
  endfacet
  facet normal 1.000000e+00 0.000000e+00 0.000000e+00
    outer loop
      vertex -1.140523e+00 1.400000e+01 0.000000e+00
      vertex -1.140523e+00 3.897312e+00 5.000000e+00
      vertex -1.140523e+00 3.897312e+00 0.000000e+00
    endloop
  endfacet
  facet normal 1.000000e+00 0.000000e+00 0.000000e+00
    outer loop
      vertex -1.140523e+00 3.897312e+00 5.000000e+00
      vertex -1.140523e+00 1.400000e+01 0.000000e+00
      vertex -1.140523e+00 1.400000e+01 5.000000e+00
    endloop
  endfacet
  facet normal -1.193467e-02 9.999288e-01 0.000000e+00
    outer loop
      vertex 4.170620e-01 4.466985e+00 5.000000e+00
      vertex 1.595093e+00 4.481046e+00 0.000000e+00
      vertex 4.170620e-01 4.466985e+00 0.000000e+00
    endloop
  endfacet
  facet normal -1.193467e-02 9.999288e-01 0.000000e+00
    outer loop
      vertex 1.595093e+00 4.481046e+00 0.000000e+00
      vertex 4.170620e-01 4.466985e+00 5.000000e+00
      vertex 1.595093e+00 4.481046e+00 5.000000e+00
    endloop
  endfacet
  facet normal -2.703286e-01 9.627681e-01 0.000000e+00
    outer loop
      vertex -7.171886e-01 4.148508e+00 5.000000e+00
      vertex 4.170620e-01 4.466985e+00 0.000000e+00
      vertex -7.171886e-01 4.148508e+00 0.000000e+00
    endloop
  endfacet
  facet normal -2.703286e-01 9.627681e-01 0.000000e+00
    outer loop
      vertex 4.170620e-01 4.466985e+00 0.000000e+00
      vertex -7.171886e-01 4.148508e+00 5.000000e+00
      vertex 4.170620e-01 4.466985e+00 5.000000e+00
    endloop
  endfacet
  facet normal 2.472726e-01 9.689460e-01 0.000000e+00
    outer loop
      vertex 1.595093e+00 4.481046e+00 5.000000e+00
      vertex 2.736622e+00 4.189731e+00 0.000000e+00
      vertex 1.595093e+00 4.481046e+00 0.000000e+00
    endloop
  endfacet
  facet normal 2.472726e-01 9.689460e-01 0.000000e+00
    outer loop
      vertex 2.736622e+00 4.189731e+00 0.000000e+00
      vertex 1.595093e+00 4.481046e+00 5.000000e+00
      vertex 2.736622e+00 4.189731e+00 5.000000e+00
    endloop
  endfacet
  facet normal 4.896287e-01 8.719311e-01 0.000000e+00
    outer loop
      vertex 2.736622e+00 4.189731e+00 5.000000e+00
      vertex 3.763857e+00 3.612892e+00 0.000000e+00
      vertex 2.736622e+00 4.189731e+00 0.000000e+00
    endloop
  endfacet
  facet normal 4.896287e-01 8.719311e-01 0.000000e+00
    outer loop
      vertex 3.763857e+00 3.612892e+00 0.000000e+00
      vertex 2.736622e+00 4.189731e+00 5.000000e+00
      vertex 3.763857e+00 3.612892e+00 5.000000e+00
    endloop
  endfacet
  facet normal 6.986173e-01 7.154955e-01 0.000000e+00
    outer loop
      vertex 3.763857e+00 3.612892e+00 5.000000e+00
      vertex 4.606793e+00 2.789840e+00 0.000000e+00
      vertex 3.763857e+00 3.612892e+00 0.000000e+00
    endloop
  endfacet
  facet normal 6.986173e-01 7.154955e-01 0.000000e+00
    outer loop
      vertex 4.606793e+00 2.789840e+00 0.000000e+00
      vertex 3.763857e+00 3.612892e+00 5.000000e+00
      vertex 4.606793e+00 2.789840e+00 5.000000e+00
    endloop
  endfacet
  facet normal 9.689460e-01 -2.472726e-01 0.000000e+00
    outer loop
      vertex 5.540523e+00 -5.356152e-01 0.000000e+00
      vertex 5.249208e+00 -1.677145e+00 5.000000e+00
      vertex 5.249208e+00 -1.677145e+00 0.000000e+00
    endloop
  endfacet
  facet normal 9.689460e-01 -2.472726e-01 0.000000e+00
    outer loop
      vertex 5.249208e+00 -1.677145e+00 5.000000e+00
      vertex 5.540523e+00 -5.356152e-01 0.000000e+00
      vertex 5.540523e+00 -5.356152e-01 5.000000e+00
    endloop
  endfacet
  facet normal 8.719311e-01 -4.896287e-01 0.000000e+00
    outer loop
      vertex 5.249208e+00 -1.677145e+00 0.000000e+00
      vertex 4.672369e+00 -2.704379e+00 5.000000e+00
      vertex 4.672369e+00 -2.704379e+00 0.000000e+00
    endloop
  endfacet
  facet normal 8.719311e-01 -4.896287e-01 0.000000e+00
    outer loop
      vertex 4.672369e+00 -2.704379e+00 5.000000e+00
      vertex 5.249208e+00 -1.677145e+00 0.000000e+00
      vertex 5.249208e+00 -1.677145e+00 5.000000e+00
    endloop
  endfacet
  facet normal 7.154955e-01 -6.986173e-01 0.000000e+00
    outer loop
      vertex 4.672369e+00 -2.704379e+00 0.000000e+00
      vertex 3.849318e+00 -3.547316e+00 5.000000e+00
      vertex 3.849318e+00 -3.547316e+00 0.000000e+00
    endloop
  endfacet
  facet normal 7.154955e-01 -6.986173e-01 0.000000e+00
    outer loop
      vertex 3.849318e+00 -3.547316e+00 5.000000e+00
      vertex 4.672369e+00 -2.704379e+00 0.000000e+00
      vertex 4.672369e+00 -2.704379e+00 5.000000e+00
    endloop
  endfacet
  facet normal 8.599964e-01 5.103001e-01 0.000000e+00
    outer loop
      vertex 4.606793e+00 2.789840e+00 0.000000e+00
      vertex 5.207985e+00 1.776666e+00 5.000000e+00
      vertex 5.207985e+00 1.776666e+00 0.000000e+00
    endloop
  endfacet
  facet normal 8.599964e-01 5.103001e-01 0.000000e+00
    outer loop
      vertex 5.207985e+00 1.776666e+00 5.000000e+00
      vertex 4.606793e+00 2.789840e+00 0.000000e+00
      vertex 4.606793e+00 2.789840e+00 5.000000e+00
    endloop
  endfacet
  facet normal 9.627681e-01 2.703286e-01 0.000000e+00
    outer loop
      vertex 5.207985e+00 1.776666e+00 0.000000e+00
      vertex 5.526464e+00 6.424148e-01 5.000000e+00
      vertex 5.526464e+00 6.424148e-01 0.000000e+00
    endloop
  endfacet
  facet normal 9.627681e-01 2.703286e-01 0.000000e+00
    outer loop
      vertex 5.526464e+00 6.424148e-01 5.000000e+00
      vertex 5.207985e+00 1.776666e+00 0.000000e+00
      vertex 5.207985e+00 1.776666e+00 5.000000e+00
    endloop
  endfacet
  facet normal 9.999288e-01 1.193467e-02 0.000000e+00
    outer loop
      vertex 5.534131e+00 -2.123415e-07 0.000000e+00
      vertex 5.540523e+00 -5.356152e-01 5.000000e+00
      vertex 5.540523e+00 -5.356152e-01 0.000000e+00
    endloop
  endfacet
  facet normal 9.999288e-01 1.193467e-02 0.000000e+00
    outer loop
      vertex 5.540523e+00 -5.356152e-01 5.000000e+00
      vertex 5.534131e+00 -2.123415e-07 0.000000e+00
      vertex 5.534131e+00 -2.123415e-07 5.000000e+00
    endloop
  endfacet
  facet normal 5.103001e-01 -8.599964e-01 0.000000e+00
    outer loop
      vertex 3.849318e+00 -3.547316e+00 5.000000e+00
      vertex 2.836144e+00 -4.148507e+00 0.000000e+00
      vertex 3.849318e+00 -3.547316e+00 0.000000e+00
    endloop
  endfacet
  facet normal 5.103001e-01 -8.599964e-01 0.000000e+00
    outer loop
      vertex 2.836144e+00 -4.148507e+00 0.000000e+00
      vertex 3.849318e+00 -3.547316e+00 5.000000e+00
      vertex 2.836144e+00 -4.148507e+00 5.000000e+00
    endloop
  endfacet
  facet normal 2.703286e-01 -9.627681e-01 0.000000e+00
    outer loop
      vertex 2.836144e+00 -4.148507e+00 5.000000e+00
      vertex 1.701892e+00 -4.466986e+00 0.000000e+00
      vertex 2.836144e+00 -4.148507e+00 0.000000e+00
    endloop
  endfacet
  facet normal 2.703286e-01 -9.627681e-01 0.000000e+00
    outer loop
      vertex 1.701892e+00 -4.466986e+00 0.000000e+00
      vertex 2.836144e+00 -4.148507e+00 5.000000e+00
      vertex 1.701892e+00 -4.466986e+00 5.000000e+00
    endloop
  endfacet
  facet normal 1.193467e-02 -9.999288e-01 0.000000e+00
    outer loop
      vertex 1.701892e+00 -4.466986e+00 5.000000e+00
      vertex 5.238612e-01 -4.481046e+00 0.000000e+00
      vertex 1.701892e+00 -4.466986e+00 0.000000e+00
    endloop
  endfacet
  facet normal 1.193467e-02 -9.999288e-01 0.000000e+00
    outer loop
      vertex 5.238612e-01 -4.481046e+00 0.000000e+00
      vertex 1.701892e+00 -4.466986e+00 5.000000e+00
      vertex 5.238612e-01 -4.481046e+00 5.000000e+00
    endloop
  endfacet
  facet normal -2.472726e-01 -9.689460e-01 -0.000000e+00
    outer loop
      vertex 5.238612e-01 -4.481046e+00 5.000000e+00
      vertex -6.176679e-01 -4.189731e+00 0.000000e+00
      vertex 5.238612e-01 -4.481046e+00 0.000000e+00
    endloop
  endfacet
  facet normal -2.472726e-01 -9.689460e-01 -0.000000e+00
    outer loop
      vertex -6.176679e-01 -4.189731e+00 0.000000e+00
      vertex 5.238612e-01 -4.481046e+00 5.000000e+00
      vertex -6.176679e-01 -4.189731e+00 5.000000e+00
    endloop
  endfacet
  facet normal -9.999288e-01 -1.193467e-02 0.000000e+00
    outer loop
      vertex 4.034024e+00 -2.123415e-07 5.000000e+00
      vertex 4.038273e+00 -3.560526e-01 0.000000e+00
      vertex 4.038273e+00 -3.560526e-01 5.000000e+00
    endloop
  endfacet
  facet normal -9.999288e-01 -1.193467e-02 0.000000e+00
    outer loop
      vertex 4.038273e+00 -3.560526e-01 0.000000e+00
      vertex 4.034024e+00 -2.123415e-07 5.000000e+00
      vertex 4.034024e+00 -2.123415e-07 0.000000e+00
    endloop
  endfacet
  facet normal -9.627681e-01 -2.703286e-01 -0.000000e+00
    outer loop
      vertex 3.817217e+00 1.181047e+00 5.000000e+00
      vertex 4.028927e+00 4.270485e-01 0.000000e+00
      vertex 4.028927e+00 4.270485e-01 5.000000e+00
    endloop
  endfacet
  facet normal -9.627681e-01 -2.703286e-01 -0.000000e+00
    outer loop
      vertex 4.028927e+00 4.270485e-01 0.000000e+00
      vertex 3.817217e+00 1.181047e+00 5.000000e+00
      vertex 3.817217e+00 1.181047e+00 0.000000e+00
    endloop
  endfacet
  facet normal -8.599964e-01 -5.103001e-01 -0.000000e+00
    outer loop
      vertex 3.417571e+00 1.854560e+00 5.000000e+00
      vertex 3.817217e+00 1.181047e+00 0.000000e+00
      vertex 3.817217e+00 1.181047e+00 5.000000e+00
    endloop
  endfacet
  facet normal -8.599964e-01 -5.103001e-01 -0.000000e+00
    outer loop
      vertex 3.817217e+00 1.181047e+00 0.000000e+00
      vertex 3.417571e+00 1.854560e+00 5.000000e+00
      vertex 3.417571e+00 1.854560e+00 0.000000e+00
    endloop
  endfacet
  facet normal -6.986173e-01 -7.154955e-01 -0.000000e+00
    outer loop
      vertex 3.417571e+00 1.854560e+00 5.000000e+00
      vertex 2.857227e+00 2.401687e+00 0.000000e+00
      vertex 3.417571e+00 1.854560e+00 0.000000e+00
    endloop
  endfacet
  facet normal -6.986173e-01 -7.154955e-01 -0.000000e+00
    outer loop
      vertex 2.857227e+00 2.401687e+00 0.000000e+00
      vertex 3.417571e+00 1.854560e+00 5.000000e+00
      vertex 2.857227e+00 2.401687e+00 5.000000e+00
    endloop
  endfacet
  facet normal -4.896287e-01 -8.719311e-01 -0.000000e+00
    outer loop
      vertex 2.857227e+00 2.401687e+00 5.000000e+00
      vertex 2.174367e+00 2.785143e+00 0.000000e+00
      vertex 2.857227e+00 2.401687e+00 0.000000e+00
    endloop
  endfacet
  facet normal -4.896287e-01 -8.719311e-01 -0.000000e+00
    outer loop
      vertex 2.174367e+00 2.785143e+00 0.000000e+00
      vertex 2.857227e+00 2.401687e+00 5.000000e+00
      vertex 2.174367e+00 2.785143e+00 5.000000e+00
    endloop
  endfacet
  facet normal -2.472726e-01 -9.689460e-01 -0.000000e+00
    outer loop
      vertex 2.174367e+00 2.785143e+00 5.000000e+00
      vertex 1.415530e+00 2.978796e+00 0.000000e+00
      vertex 2.174367e+00 2.785143e+00 0.000000e+00
    endloop
  endfacet
  facet normal -2.472726e-01 -9.689460e-01 -0.000000e+00
    outer loop
      vertex 1.415530e+00 2.978796e+00 0.000000e+00
      vertex 2.174367e+00 2.785143e+00 5.000000e+00
      vertex 1.415530e+00 2.978796e+00 5.000000e+00
    endloop
  endfacet
  facet normal 1.193467e-02 -9.999288e-01 0.000000e+00
    outer loop
      vertex 1.415530e+00 2.978796e+00 5.000000e+00
      vertex 6.324294e-01 2.969450e+00 0.000000e+00
      vertex 1.415530e+00 2.978796e+00 0.000000e+00
    endloop
  endfacet
  facet normal 1.193467e-02 -9.999288e-01 0.000000e+00
    outer loop
      vertex 6.324294e-01 2.969450e+00 0.000000e+00
      vertex 1.415530e+00 2.978796e+00 5.000000e+00
      vertex 6.324294e-01 2.969450e+00 5.000000e+00
    endloop
  endfacet
  facet normal 2.703286e-01 -9.627681e-01 0.000000e+00
    outer loop
      vertex 6.324294e-01 2.969450e+00 5.000000e+00
      vertex -1.215694e-01 2.757740e+00 0.000000e+00
      vertex 6.324294e-01 2.969450e+00 0.000000e+00
    endloop
  endfacet
  facet normal 2.703286e-01 -9.627681e-01 0.000000e+00
    outer loop
      vertex -1.215694e-01 2.757740e+00 0.000000e+00
      vertex 6.324294e-01 2.969450e+00 5.000000e+00
      vertex -1.215694e-01 2.757740e+00 5.000000e+00
    endloop
  endfacet
  facet normal 4.774195e-01 -8.786755e-01 0.000000e+00
    outer loop
      vertex -1.215694e-01 2.757740e+00 5.000000e+00
      vertex -5.052745e-01 2.549257e+00 0.000000e+00
      vertex -1.215694e-01 2.757740e+00 0.000000e+00
    endloop
  endfacet
  facet normal 4.774195e-01 -8.786755e-01 0.000000e+00
    outer loop
      vertex -5.052745e-01 2.549257e+00 0.000000e+00
      vertex -1.215694e-01 2.757740e+00 5.000000e+00
      vertex -5.052745e-01 2.549257e+00 5.000000e+00
    endloop
  endfacet
  facet normal -0.000000e+00 -1.000000e+00 -0.000000e+00
    outer loop
      vertex -5.052745e-01 2.549257e+00 5.000000e+00
      vertex -2.640523e+00 2.549257e+00 0.000000e+00
      vertex -5.052745e-01 2.549257e+00 0.000000e+00
    endloop
  endfacet
  facet normal -0.000000e+00 -1.000000e+00 -0.000000e+00
    outer loop
      vertex -2.640523e+00 2.549257e+00 0.000000e+00
      vertex -5.052745e-01 2.549257e+00 5.000000e+00
      vertex -2.640523e+00 2.549257e+00 5.000000e+00
    endloop
  endfacet
  facet normal -1.000000e+00 0.000000e+00 0.000000e+00
    outer loop
      vertex -2.640523e+00 1.250000e+01 5.000000e+00
      vertex -2.640523e+00 2.549257e+00 0.000000e+00
      vertex -2.640523e+00 2.549257e+00 5.000000e+00
    endloop
  endfacet
  facet normal -1.000000e+00 0.000000e+00 0.000000e+00
    outer loop
      vertex -2.640523e+00 2.549257e+00 0.000000e+00
      vertex -2.640523e+00 1.250000e+01 5.000000e+00
      vertex -2.640523e+00 1.250000e+01 0.000000e+00
    endloop
  endfacet
  facet normal -0.000000e+00 -1.000000e+00 -0.000000e+00
    outer loop
      vertex -2.640523e+00 1.250000e+01 5.000000e+00
      vertex -4.040523e+00 1.250000e+01 0.000000e+00
      vertex -2.640523e+00 1.250000e+01 0.000000e+00
    endloop
  endfacet
  facet normal -0.000000e+00 -1.000000e+00 -0.000000e+00
    outer loop
      vertex -4.040523e+00 1.250000e+01 0.000000e+00
      vertex -2.640523e+00 1.250000e+01 5.000000e+00
      vertex -4.040523e+00 1.250000e+01 5.000000e+00
    endloop
  endfacet
  facet normal 1.000000e+00 0.000000e+00 0.000000e+00
    outer loop
      vertex -4.040523e+00 1.250000e+01 0.000000e+00
      vertex -4.040523e+00 1.050000e+01 5.000000e+00
      vertex -4.040523e+00 1.050000e+01 0.000000e+00
    endloop
  endfacet
  facet normal 1.000000e+00 0.000000e+00 0.000000e+00
    outer loop
      vertex -4.040523e+00 1.050000e+01 5.000000e+00
      vertex -4.040523e+00 1.250000e+01 0.000000e+00
      vertex -4.040523e+00 1.250000e+01 5.000000e+00
    endloop
  endfacet
  facet normal -0.000000e+00 -1.000000e+00 -0.000000e+00
    outer loop
      vertex -4.040523e+00 1.050000e+01 5.000000e+00
      vertex -5.540523e+00 1.050000e+01 0.000000e+00
      vertex -4.040523e+00 1.050000e+01 0.000000e+00
    endloop
  endfacet
  facet normal -0.000000e+00 -1.000000e+00 -0.000000e+00
    outer loop
      vertex -5.540523e+00 1.050000e+01 0.000000e+00
      vertex -4.040523e+00 1.050000e+01 5.000000e+00
      vertex -5.540523e+00 1.050000e+01 5.000000e+00
    endloop
  endfacet
  facet normal -1.000000e+00 0.000000e+00 0.000000e+00
    outer loop
      vertex -5.540523e+00 1.400000e+01 5.000000e+00
      vertex -5.540523e+00 1.050000e+01 0.000000e+00
      vertex -5.540523e+00 1.050000e+01 5.000000e+00
    endloop
  endfacet
  facet normal -1.000000e+00 0.000000e+00 0.000000e+00
    outer loop
      vertex -5.540523e+00 1.050000e+01 0.000000e+00
      vertex -5.540523e+00 1.400000e+01 5.000000e+00
      vertex -5.540523e+00 1.400000e+01 0.000000e+00
    endloop
  endfacet
  facet normal 0.000000e+00 1.000000e+00 0.000000e+00
    outer loop
      vertex -5.540523e+00 1.400000e+01 5.000000e+00
      vertex -1.140523e+00 1.400000e+01 0.000000e+00
      vertex -5.540523e+00 1.400000e+01 0.000000e+00
    endloop
  endfacet
  facet normal 0.000000e+00 1.000000e+00 0.000000e+00
    outer loop
      vertex -1.140523e+00 1.400000e+01 0.000000e+00
      vertex -5.540523e+00 1.400000e+01 5.000000e+00
      vertex -1.140523e+00 1.400000e+01 5.000000e+00
    endloop
  endfacet
endsolid Default
