solid OpenSCAD_Model
  facet normal -1 0 0
    outer loop
      vertex 0 0 0
      vertex 0 5 0.5
      vertex 0 5 0
    endloop
  endfacet
  facet normal -1 -0 0
    outer loop
      vertex 0 5 0.5
      vertex 0 0 0
      vertex 0 0 0.5
    endloop
  endfacet
  facet normal 0 0 1
    outer loop
      vertex 20 5 0.5
      vertex 19.5 2.5 0.5
      vertex 20 0 0.5
    endloop
  endfacet
  facet normal 0 0 1
    outer loop
      vertex 20 5 0.5
      vertex 19.4882 2.688 0.5
      vertex 19.5 2.5 0.5
    endloop
  endfacet
  facet normal 0 0 1
    outer loop
      vertex 20 5 0.5
      vertex 19.4529 2.87303 0.5
      vertex 19.4882 2.688 0.5
    endloop
  endfacet
  facet normal 0 0 1
    outer loop
      vertex 20 5 0.5
      vertex 19.3947 3.05219 0.5
      vertex 19.4529 2.87303 0.5
    endloop
  endfacet
  facet normal 0 0 1
    outer loop
      vertex 20 5 0.5
      vertex 19.3145 3.22263 0.5
      vertex 19.3947 3.05219 0.5
    endloop
  endfacet
  facet normal 0 0 1
    outer loop
      vertex 20 5 0.5
      vertex 19.2135 3.38168 0.5
      vertex 19.3145 3.22263 0.5
    endloop
  endfacet
  facet normal 0 0 1
    outer loop
      vertex 20 5 0.5
      vertex 19.0935 3.52682 0.5
      vertex 19.2135 3.38168 0.5
    endloop
  endfacet
  facet normal 0 0 1
    outer loop
      vertex 20 5 0.5
      vertex 18.9561 3.65577 0.5
      vertex 19.0935 3.52682 0.5
    endloop
  endfacet
  facet normal 0 0 1
    outer loop
      vertex 20 5 0.5
      vertex 18.8037 3.76649 0.5
      vertex 18.9561 3.65577 0.5
    endloop
  endfacet
  facet normal 0 0 1
    outer loop
      vertex 20 5 0.5
      vertex 18.6387 3.85724 0.5
      vertex 18.8037 3.76649 0.5
    endloop
  endfacet
  facet normal 0 0 1
    outer loop
      vertex 20 5 0.5
      vertex 18.4635 3.92658 0.5
      vertex 18.6387 3.85724 0.5
    endloop
  endfacet
  facet normal 0 0 1
    outer loop
      vertex 20 5 0.5
      vertex 18.2811 3.97343 0.5
      vertex 18.4635 3.92658 0.5
    endloop
  endfacet
  facet normal 0 0 1
    outer loop
      vertex 20 5 0.5
      vertex 18.0942 3.99704 0.5
      vertex 18.2811 3.97343 0.5
    endloop
  endfacet
  facet normal 0 0 1
    outer loop
      vertex 20 5 0.5
      vertex 17.9058 3.99704 0.5
      vertex 18.0942 3.99704 0.5
    endloop
  endfacet
  facet normal 0 0 1
    outer loop
      vertex 20 5 0.5
      vertex 17.7189 3.97343 0.5
      vertex 17.9058 3.99704 0.5
    endloop
  endfacet
  facet normal 0 0 1
    outer loop
      vertex 20 5 0.5
      vertex 17.5365 3.92658 0.5
      vertex 17.7189 3.97343 0.5
    endloop
  endfacet
  facet normal 0 0 1
    outer loop
      vertex 2.46352 3.92658 0.5
      vertex 17.5365 3.92658 0.5
      vertex 20 5 0.5
    endloop
  endfacet
  facet normal 0 0 1
    outer loop
      vertex 16.5118 2.688 0.5
      vertex 3.5 2.5 0.5
      vertex 16.5 2.5 0.5
    endloop
  endfacet
  facet normal 0 0 1
    outer loop
      vertex 3.48817 2.688 0.5
      vertex 16.5118 2.688 0.5
      vertex 16.5471 2.87303 0.5
    endloop
  endfacet
  facet normal 0 0 1
    outer loop
      vertex 3.45287 2.87303 0.5
      vertex 16.5471 2.87303 0.5
      vertex 16.6053 3.05219 0.5
    endloop
  endfacet
  facet normal 0 0 1
    outer loop
      vertex 3.39466 3.05219 0.5
      vertex 16.6053 3.05219 0.5
      vertex 16.6855 3.22263 0.5
    endloop
  endfacet
  facet normal 0 0 1
    outer loop
      vertex 3.31446 3.22263 0.5
      vertex 16.6855 3.22263 0.5
      vertex 16.7865 3.38168 0.5
    endloop
  endfacet
  facet normal 0 0 1
    outer loop
      vertex 3.21352 3.38168 0.5
      vertex 16.7865 3.38168 0.5
      vertex 16.9065 3.52682 0.5
    endloop
  endfacet
  facet normal 0 0 1
    outer loop
      vertex 3.09345 3.52682 0.5
      vertex 16.9065 3.52682 0.5
      vertex 17.0439 3.65577 0.5
    endloop
  endfacet
  facet normal 0 0 1
    outer loop
      vertex 2.95614 3.65577 0.5
      vertex 17.0439 3.65577 0.5
      vertex 17.1963 3.76649 0.5
    endloop
  endfacet
  facet normal 0 0 1
    outer loop
      vertex 2.80374 3.76649 0.5
      vertex 17.1963 3.76649 0.5
      vertex 17.3613 3.85724 0.5
    endloop
  endfacet
  facet normal 0 0 1
    outer loop
      vertex 17.5365 3.92658 0.5
      vertex 2.46352 3.92658 0.5
      vertex 17.3613 3.85724 0.5
    endloop
  endfacet
  facet normal 0 0 1
    outer loop
      vertex 16.5118 2.688 0.5
      vertex 3.48817 2.688 0.5
      vertex 3.5 2.5 0.5
    endloop
  endfacet
  facet normal 0 0 1
    outer loop
      vertex 16.5471 2.87303 0.5
      vertex 3.45287 2.87303 0.5
      vertex 3.48817 2.688 0.5
    endloop
  endfacet
  facet normal 0 0 1
    outer loop
      vertex 16.6053 3.05219 0.5
      vertex 3.39466 3.05219 0.5
      vertex 3.45287 2.87303 0.5
    endloop
  endfacet
  facet normal 0 0 1
    outer loop
      vertex 16.6855 3.22263 0.5
      vertex 3.31446 3.22263 0.5
      vertex 3.39466 3.05219 0.5
    endloop
  endfacet
  facet normal 0 0 1
    outer loop
      vertex 16.7865 3.38168 0.5
      vertex 3.21352 3.38168 0.5
      vertex 3.31446 3.22263 0.5
    endloop
  endfacet
  facet normal 0 0 1
    outer loop
      vertex 16.9065 3.52682 0.5
      vertex 3.09345 3.52682 0.5
      vertex 3.21352 3.38168 0.5
    endloop
  endfacet
  facet normal 0 0 1
    outer loop
      vertex 17.0439 3.65577 0.5
      vertex 2.95614 3.65577 0.5
      vertex 3.09345 3.52682 0.5
    endloop
  endfacet
  facet normal 0 0 1
    outer loop
      vertex 17.1963 3.76649 0.5
      vertex 2.80374 3.76649 0.5
      vertex 2.95614 3.65577 0.5
    endloop
  endfacet
  facet normal 0 0 1
    outer loop
      vertex 17.3613 3.85724 0.5
      vertex 2.63867 3.85724 0.5
      vertex 2.80374 3.76649 0.5
    endloop
  endfacet
  facet normal 0 0 1
    outer loop
      vertex 17.3613 3.85724 0.5
      vertex 2.46352 3.92658 0.5
      vertex 2.63867 3.85724 0.5
    endloop
  endfacet
  facet normal -0 0 1
    outer loop
      vertex 0 5 0.5
      vertex 2.46352 3.92658 0.5
      vertex 20 5 0.5
    endloop
  endfacet
  facet normal 0 0 1
    outer loop
      vertex 2.46352 3.92658 0.5
      vertex 0 5 0.5
      vertex 2.28107 3.97343 0.5
    endloop
  endfacet
  facet normal 0 0 1
    outer loop
      vertex 2.28107 3.97343 0.5
      vertex 0 5 0.5
      vertex 2.09418 3.99704 0.5
    endloop
  endfacet
  facet normal 0 0 1
    outer loop
      vertex 0.511827 2.688 0.5
      vertex 0 5 0.5
      vertex 0.5 2.5 0.5
    endloop
  endfacet
  facet normal 0 0 1
    outer loop
      vertex 0.547125 2.87303 0.5
      vertex 0 5 0.5
      vertex 0.511827 2.688 0.5
    endloop
  endfacet
  facet normal 0 0 1
    outer loop
      vertex 0.605335 3.05219 0.5
      vertex 0 5 0.5
      vertex 0.547125 2.87303 0.5
    endloop
  endfacet
  facet normal 0 0 1
    outer loop
      vertex 0.685539 3.22263 0.5
      vertex 0 5 0.5
      vertex 0.605335 3.05219 0.5
    endloop
  endfacet
  facet normal 0 0 1
    outer loop
      vertex 0.786474 3.38168 0.5
      vertex 0 5 0.5
      vertex 0.685539 3.22263 0.5
    endloop
  endfacet
  facet normal 0 0 1
    outer loop
      vertex 0.906547 3.52682 0.5
      vertex 0 5 0.5
      vertex 0.786474 3.38168 0.5
    endloop
  endfacet
  facet normal 0 0 1
    outer loop
      vertex 1.04386 3.65577 0.5
      vertex 0 5 0.5
      vertex 0.906547 3.52682 0.5
    endloop
  endfacet
  facet normal 0 0 1
    outer loop
      vertex 1.19626 3.76649 0.5
      vertex 0 5 0.5
      vertex 1.04386 3.65577 0.5
    endloop
  endfacet
  facet normal 0 0 1
    outer loop
      vertex 1.36133 3.85724 0.5
      vertex 0 5 0.5
      vertex 1.19626 3.76649 0.5
    endloop
  endfacet
  facet normal 0 0 1
    outer loop
      vertex 1.53647 3.92658 0.5
      vertex 0 5 0.5
      vertex 1.36133 3.85724 0.5
    endloop
  endfacet
  facet normal 0 0 1
    outer loop
      vertex 1.71893 3.97343 0.5
      vertex 0 5 0.5
      vertex 1.53647 3.92658 0.5
    endloop
  endfacet
  facet normal 0 0 1
    outer loop
      vertex 1.90581 3.99704 0.5
      vertex 0 5 0.5
      vertex 1.71893 3.97343 0.5
    endloop
  endfacet
  facet normal 0 0 1
    outer loop
      vertex 2.09418 3.99704 0.5
      vertex 0 5 0.5
      vertex 1.90581 3.99704 0.5
    endloop
  endfacet
  facet normal -0 0 1
    outer loop
      vertex 19.4882 2.312 0.5
      vertex 20 0 0.5
      vertex 19.5 2.5 0.5
    endloop
  endfacet
  facet normal -0 0 1
    outer loop
      vertex 19.4529 2.12696 0.5
      vertex 20 0 0.5
      vertex 19.4882 2.312 0.5
    endloop
  endfacet
  facet normal -0 0 1
    outer loop
      vertex 19.3947 1.94781 0.5
      vertex 20 0 0.5
      vertex 19.4529 2.12696 0.5
    endloop
  endfacet
  facet normal -0 0 1
    outer loop
      vertex 19.3145 1.77737 0.5
      vertex 20 0 0.5
      vertex 19.3947 1.94781 0.5
    endloop
  endfacet
  facet normal -0 0 1
    outer loop
      vertex 19.2135 1.61832 0.5
      vertex 20 0 0.5
      vertex 19.3145 1.77737 0.5
    endloop
  endfacet
  facet normal -0 0 1
    outer loop
      vertex 19.0935 1.47318 0.5
      vertex 20 0 0.5
      vertex 19.2135 1.61832 0.5
    endloop
  endfacet
  facet normal -0 0 1
    outer loop
      vertex 18.9561 1.34423 0.5
      vertex 20 0 0.5
      vertex 19.0935 1.47318 0.5
    endloop
  endfacet
  facet normal -0 0 1
    outer loop
      vertex 18.8037 1.23351 0.5
      vertex 20 0 0.5
      vertex 18.9561 1.34423 0.5
    endloop
  endfacet
  facet normal -0 0 1
    outer loop
      vertex 18.6387 1.14276 0.5
      vertex 20 0 0.5
      vertex 18.8037 1.23351 0.5
    endloop
  endfacet
  facet normal -0 0 1
    outer loop
      vertex 18.4635 1.07341 0.5
      vertex 20 0 0.5
      vertex 18.6387 1.14276 0.5
    endloop
  endfacet
  facet normal -0 0 1
    outer loop
      vertex 18.2811 1.02657 0.5
      vertex 20 0 0.5
      vertex 18.4635 1.07341 0.5
    endloop
  endfacet
  facet normal -0 0 1
    outer loop
      vertex 18.0942 1.00296 0.5
      vertex 20 0 0.5
      vertex 18.2811 1.02657 0.5
    endloop
  endfacet
  facet normal -0 0 1
    outer loop
      vertex 17.9058 1.00296 0.5
      vertex 20 0 0.5
      vertex 18.0942 1.00296 0.5
    endloop
  endfacet
  facet normal 0 0 1
    outer loop
      vertex 17.7189 1.02657 0.5
      vertex 20 0 0.5
      vertex 17.9058 1.00296 0.5
    endloop
  endfacet
  facet normal 0 0 1
    outer loop
      vertex 17.5365 1.07341 0.5
      vertex 20 0 0.5
      vertex 17.7189 1.02657 0.5
    endloop
  endfacet
  facet normal 0 0 1
    outer loop
      vertex 2.46352 1.07341 0.5
      vertex 17.5365 1.07341 0.5
      vertex 17.3613 1.14276 0.5
    endloop
  endfacet
  facet normal -0 0 1
    outer loop
      vertex 3.5 2.5 0.5
      vertex 16.5118 2.312 0.5
      vertex 16.5 2.5 0.5
    endloop
  endfacet
  facet normal 0 0 1
    outer loop
      vertex 3.48817 2.312 0.5
      vertex 16.5118 2.312 0.5
      vertex 3.5 2.5 0.5
    endloop
  endfacet
  facet normal 0 0 1
    outer loop
      vertex 16.5118 2.312 0.5
      vertex 3.48817 2.312 0.5
      vertex 16.5471 2.12696 0.5
    endloop
  endfacet
  facet normal 0 0 1
    outer loop
      vertex 3.45287 2.12696 0.5
      vertex 16.5471 2.12696 0.5
      vertex 3.48817 2.312 0.5
    endloop
  endfacet
  facet normal 0 0 1
    outer loop
      vertex 16.5471 2.12696 0.5
      vertex 3.45287 2.12696 0.5
      vertex 16.6053 1.94781 0.5
    endloop
  endfacet
  facet normal 0 0 1
    outer loop
      vertex 3.39466 1.94781 0.5
      vertex 16.6053 1.94781 0.5
      vertex 3.45287 2.12696 0.5
    endloop
  endfacet
  facet normal 0 0 1
    outer loop
      vertex 16.6053 1.94781 0.5
      vertex 3.39466 1.94781 0.5
      vertex 16.6855 1.77737 0.5
    endloop
  endfacet
  facet normal 0 0 1
    outer loop
      vertex 3.31446 1.77737 0.5
      vertex 16.6855 1.77737 0.5
      vertex 3.39466 1.94781 0.5
    endloop
  endfacet
  facet normal 0 0 1
    outer loop
      vertex 16.6855 1.77737 0.5
      vertex 3.31446 1.77737 0.5
      vertex 16.7865 1.61832 0.5
    endloop
  endfacet
  facet normal 0 0 1
    outer loop
      vertex 3.21352 1.61832 0.5
      vertex 16.7865 1.61832 0.5
      vertex 3.31446 1.77737 0.5
    endloop
  endfacet
  facet normal 0 0 1
    outer loop
      vertex 16.7865 1.61832 0.5
      vertex 3.21352 1.61832 0.5
      vertex 16.9065 1.47318 0.5
    endloop
  endfacet
  facet normal 0 0 1
    outer loop
      vertex 3.09345 1.47318 0.5
      vertex 16.9065 1.47318 0.5
      vertex 3.21352 1.61832 0.5
    endloop
  endfacet
  facet normal 0 0 1
    outer loop
      vertex 16.9065 1.47318 0.5
      vertex 3.09345 1.47318 0.5
      vertex 17.0439 1.34423 0.5
    endloop
  endfacet
  facet normal 0 0 1
    outer loop
      vertex 2.95614 1.34423 0.5
      vertex 17.0439 1.34423 0.5
      vertex 3.09345 1.47318 0.5
    endloop
  endfacet
  facet normal 0 0 1
    outer loop
      vertex 17.0439 1.34423 0.5
      vertex 2.95614 1.34423 0.5
      vertex 17.1963 1.23351 0.5
    endloop
  endfacet
  facet normal 0 0 1
    outer loop
      vertex 2.80374 1.23351 0.5
      vertex 17.1963 1.23351 0.5
      vertex 2.95614 1.34423 0.5
    endloop
  endfacet
  facet normal 0 0 1
    outer loop
      vertex 17.1963 1.23351 0.5
      vertex 2.80374 1.23351 0.5
      vertex 17.3613 1.14276 0.5
    endloop
  endfacet
  facet normal 0 0 1
    outer loop
      vertex 2.63867 1.14276 0.5
      vertex 17.3613 1.14276 0.5
      vertex 2.80374 1.23351 0.5
    endloop
  endfacet
  facet normal 0 0 1
    outer loop
      vertex 2.46352 1.07341 0.5
      vertex 17.3613 1.14276 0.5
      vertex 2.63867 1.14276 0.5
    endloop
  endfacet
  facet normal 0 0 1
    outer loop
      vertex 17.5365 1.07341 0.5
      vertex 2.46352 1.07341 0.5
      vertex 20 0 0.5
    endloop
  endfacet
  facet normal 0 0 1
    outer loop
      vertex 0 0 0.5
      vertex 2.46352 1.07341 0.5
      vertex 2.28107 1.02657 0.5
    endloop
  endfacet
  facet normal 0 0 1
    outer loop
      vertex 0 0 0.5
      vertex 2.28107 1.02657 0.5
      vertex 2.09418 1.00296 0.5
    endloop
  endfacet
  facet normal 0 0 1
    outer loop
      vertex 0 0 0.5
      vertex 2.09418 1.00296 0.5
      vertex 1.90581 1.00296 0.5
    endloop
  endfacet
  facet normal 0 0 1
    outer loop
      vertex 0 0 0.5
      vertex 0.5 2.5 0.5
      vertex 0 5 0.5
    endloop
  endfacet
  facet normal 0 0 1
    outer loop
      vertex 2.46352 1.07341 0.5
      vertex 0 0 0.5
      vertex 20 0 0.5
    endloop
  endfacet
  facet normal 0 0 1
    outer loop
      vertex 1.71893 1.02657 0.5
      vertex 0 0 0.5
      vertex 1.90581 1.00296 0.5
    endloop
  endfacet
  facet normal 0 0 1
    outer loop
      vertex 1.53647 1.07341 0.5
      vertex 0 0 0.5
      vertex 1.71893 1.02657 0.5
    endloop
  endfacet
  facet normal 0 0 1
    outer loop
      vertex 1.36133 1.14276 0.5
      vertex 0 0 0.5
      vertex 1.53647 1.07341 0.5
    endloop
  endfacet
  facet normal 0 0 1
    outer loop
      vertex 1.19626 1.23351 0.5
      vertex 0 0 0.5
      vertex 1.36133 1.14276 0.5
    endloop
  endfacet
  facet normal 0 0 1
    outer loop
      vertex 1.04386 1.34423 0.5
      vertex 0 0 0.5
      vertex 1.19626 1.23351 0.5
    endloop
  endfacet
  facet normal 0 0 1
    outer loop
      vertex 0.906547 1.47318 0.5
      vertex 0 0 0.5
      vertex 1.04386 1.34423 0.5
    endloop
  endfacet
  facet normal 0 0 1
    outer loop
      vertex 0.786474 1.61832 0.5
      vertex 0 0 0.5
      vertex 0.906547 1.47318 0.5
    endloop
  endfacet
  facet normal 0 0 1
    outer loop
      vertex 0.685539 1.77737 0.5
      vertex 0 0 0.5
      vertex 0.786474 1.61832 0.5
    endloop
  endfacet
  facet normal 0 0 1
    outer loop
      vertex 0.605335 1.94781 0.5
      vertex 0 0 0.5
      vertex 0.685539 1.77737 0.5
    endloop
  endfacet
  facet normal 0 0 1
    outer loop
      vertex 0.547125 2.12696 0.5
      vertex 0 0 0.5
      vertex 0.605335 1.94781 0.5
    endloop
  endfacet
  facet normal 0 0 1
    outer loop
      vertex 0.511827 2.312 0.5
      vertex 0 0 0.5
      vertex 0.547125 2.12696 0.5
    endloop
  endfacet
  facet normal 0 0 1
    outer loop
      vertex 0.5 2.5 0.5
      vertex 0 0 0.5
      vertex 0.511827 2.312 0.5
    endloop
  endfacet
  facet normal 1 -0 0
    outer loop
      vertex 20 0 0.5
      vertex 20 5 0
      vertex 20 5 0.5
    endloop
  endfacet
  facet normal 1 0 0
    outer loop
      vertex 20 5 0
      vertex 20 0 0.5
      vertex 20 0 0
    endloop
  endfacet
  facet normal 0 0 -1
    outer loop
      vertex 0 0 0
      vertex 20 5 0
      vertex 20 0 0
    endloop
  endfacet
  facet normal -0 0 -1
    outer loop
      vertex 20 5 0
      vertex 0 0 0
      vertex 0 5 0
    endloop
  endfacet
  facet normal 0 -1 0
    outer loop
      vertex 0 0 0
      vertex 20 0 0.5
      vertex 0 0 0.5
    endloop
  endfacet
  facet normal 0 -1 -0
    outer loop
      vertex 20 0 0.5
      vertex 0 0 0
      vertex 20 0 0
    endloop
  endfacet
  facet normal 0 1 -0
    outer loop
      vertex 20 5 0
      vertex 0 5 0.5
      vertex 20 5 0.5
    endloop
  endfacet
  facet normal 0 1 0
    outer loop
      vertex 0 5 0.5
      vertex 20 5 0
      vertex 0 5 0
    endloop
  endfacet
  facet normal 0.844326 0.535829 0
    outer loop
      vertex 3.31446 3.22263 20.5
      vertex 3.21352 3.38168 0.5
      vertex 3.21352 3.38168 20.5
    endloop
  endfacet
  facet normal 0.844326 0.535829 0
    outer loop
      vertex 3.21352 3.38168 0.5
      vertex 3.31446 3.22263 20.5
      vertex 3.31446 3.22263 0.5
    endloop
  endfacet
  facet normal 0.248692 0.968583 -0
    outer loop
      vertex 2.46352 3.92658 0.5
      vertex 2.28107 3.97343 20.5
      vertex 2.46352 3.92658 20.5
    endloop
  endfacet
  facet normal 0.248692 0.968583 0
    outer loop
      vertex 2.28107 3.97343 20.5
      vertex 2.46352 3.92658 0.5
      vertex 2.28107 3.97343 0.5
    endloop
  endfacet
  facet normal -0.481754 0.876307 0
    outer loop
      vertex 1.36133 3.85724 0.5
      vertex 1.19626 3.76649 20.5
      vertex 1.36133 3.85724 20.5
    endloop
  endfacet
  facet normal -0.481754 0.876307 0
    outer loop
      vertex 1.19626 3.76649 20.5
      vertex 1.36133 3.85724 0.5
      vertex 1.19626 3.76649 0.5
    endloop
  endfacet
  facet normal -0.951056 0.309019 0
    outer loop
      vertex 0.547125 2.87303 0.5
      vertex 0.605335 3.05219 20.5
      vertex 0.605335 3.05219 0.5
    endloop
  endfacet
  facet normal -0.951056 0.309019 0
    outer loop
      vertex 0.605335 3.05219 20.5
      vertex 0.547125 2.87303 0.5
      vertex 0.547125 2.87303 20.5
    endloop
  endfacet
  facet normal 0.982287 -0.187382 0
    outer loop
      vertex 3.45287 2.12696 20.5
      vertex 3.48817 2.312 0.5
      vertex 3.48817 2.312 20.5
    endloop
  endfacet
  facet normal 0.982287 -0.187382 0
    outer loop
      vertex 3.48817 2.312 0.5
      vertex 3.45287 2.12696 20.5
      vertex 3.45287 2.12696 0.5
    endloop
  endfacet
  facet normal 0.982287 0.187382 0
    outer loop
      vertex 3.48817 2.688 20.5
      vertex 3.45287 2.87303 0.5
      vertex 3.45287 2.87303 20.5
    endloop
  endfacet
  facet normal 0.982287 0.187382 0
    outer loop
      vertex 3.45287 2.87303 0.5
      vertex 3.48817 2.688 20.5
      vertex 3.48817 2.688 0.5
    endloop
  endfacet
  facet normal 0.684548 0.728968 -0
    outer loop
      vertex 3.09345 3.52682 0.5
      vertex 2.95614 3.65577 20.5
      vertex 3.09345 3.52682 20.5
    endloop
  endfacet
  facet normal 0.684548 0.728968 0
    outer loop
      vertex 2.95614 3.65577 20.5
      vertex 3.09345 3.52682 0.5
      vertex 2.95614 3.65577 0.5
    endloop
  endfacet
  facet normal 0 1 -0
    outer loop
      vertex 2.09418 3.99704 0.5
      vertex 1.90581 3.99704 20.5
      vertex 2.09418 3.99704 20.5
    endloop
  endfacet
  facet normal 0 1 0
    outer loop
      vertex 1.90581 3.99704 20.5
      vertex 2.09418 3.99704 0.5
      vertex 1.90581 3.99704 0.5
    endloop
  endfacet
  facet normal 0.481754 0.876307 -0
    outer loop
      vertex 2.80374 3.76649 0.5
      vertex 2.63867 3.85724 20.5
      vertex 2.80374 3.76649 20.5
    endloop
  endfacet
  facet normal 0.481754 0.876307 0
    outer loop
      vertex 2.63867 3.85724 20.5
      vertex 2.80374 3.76649 0.5
      vertex 2.63867 3.85724 0.5
    endloop
  endfacet
  facet normal -0.998027 0.062788 0
    outer loop
      vertex 0.5 2.5 0.5
      vertex 0.511827 2.688 20.5
      vertex 0.511827 2.688 0.5
    endloop
  endfacet
  facet normal -0.998027 0.062788 0
    outer loop
      vertex 0.511827 2.688 20.5
      vertex 0.5 2.5 0.5
      vertex 0.5 2.5 20.5
    endloop
  endfacet
  facet normal -0.844326 0.535829 0
    outer loop
      vertex 0.685539 3.22263 0.5
      vertex 0.786474 3.38168 20.5
      vertex 0.786474 3.38168 0.5
    endloop
  endfacet
  facet normal -0.844326 0.535829 0
    outer loop
      vertex 0.786474 3.38168 20.5
      vertex 0.685539 3.22263 0.5
      vertex 0.685539 3.22263 20.5
    endloop
  endfacet
  facet normal -0.587783 0.809019 0
    outer loop
      vertex 1.19626 3.76649 0.5
      vertex 1.04386 3.65577 20.5
      vertex 1.19626 3.76649 20.5
    endloop
  endfacet
  facet normal -0.587783 0.809019 0
    outer loop
      vertex 1.04386 3.65577 20.5
      vertex 1.19626 3.76649 0.5
      vertex 1.04386 3.65577 0.5
    endloop
  endfacet
  facet normal -0.248692 0.968583 0
    outer loop
      vertex 1.71893 3.97343 0.5
      vertex 1.53647 3.92658 20.5
      vertex 1.71893 3.97343 20.5
    endloop
  endfacet
  facet normal -0.248692 0.968583 0
    outer loop
      vertex 1.53647 3.92658 20.5
      vertex 1.71893 3.97343 0.5
      vertex 1.53647 3.92658 0.5
    endloop
  endfacet
  facet normal 0.998027 0.0627931 0
    outer loop
      vertex 3.5 2.5 20.5
      vertex 3.48817 2.688 0.5
      vertex 3.48817 2.688 20.5
    endloop
  endfacet
  facet normal 0.998027 0.0627931 0
    outer loop
      vertex 3.48817 2.688 0.5
      vertex 3.5 2.5 20.5
      vertex 3.5 2.5 0.5
    endloop
  endfacet
  facet normal 0.587783 -0.809019 0
    outer loop
      vertex 2.80374 1.23351 0.5
      vertex 2.95614 1.34423 20.5
      vertex 2.80374 1.23351 20.5
    endloop
  endfacet
  facet normal 0.587783 -0.809019 0
    outer loop
      vertex 2.95614 1.34423 20.5
      vertex 2.80374 1.23351 0.5
      vertex 2.95614 1.34423 0.5
    endloop
  endfacet
  facet normal -0.587783 -0.809019 0
    outer loop
      vertex 1.04386 1.34423 0.5
      vertex 1.19626 1.23351 20.5
      vertex 1.04386 1.34423 20.5
    endloop
  endfacet
  facet normal -0.587783 -0.809019 -0
    outer loop
      vertex 1.19626 1.23351 20.5
      vertex 1.04386 1.34423 0.5
      vertex 1.19626 1.23351 0.5
    endloop
  endfacet
  facet normal -0.844326 -0.535829 0
    outer loop
      vertex 0.786474 1.61832 0.5
      vertex 0.685539 1.77737 20.5
      vertex 0.685539 1.77737 0.5
    endloop
  endfacet
  facet normal -0.844326 -0.535829 0
    outer loop
      vertex 0.685539 1.77737 20.5
      vertex 0.786474 1.61832 0.5
      vertex 0.786474 1.61832 20.5
    endloop
  endfacet
  facet normal 0.770513 0.637424 0
    outer loop
      vertex 3.21352 3.38168 20.5
      vertex 3.09345 3.52682 0.5
      vertex 3.09345 3.52682 20.5
    endloop
  endfacet
  facet normal 0.770513 0.637424 0
    outer loop
      vertex 3.09345 3.52682 0.5
      vertex 3.21352 3.38168 20.5
      vertex 3.21352 3.38168 0.5
    endloop
  endfacet
  facet normal -0.125333 0.992115 0
    outer loop
      vertex 1.90581 3.99704 0.5
      vertex 1.71893 3.97343 20.5
      vertex 1.90581 3.99704 20.5
    endloop
  endfacet
  facet normal -0.125333 0.992115 0
    outer loop
      vertex 1.71893 3.97343 20.5
      vertex 1.90581 3.99704 0.5
      vertex 1.71893 3.97343 0.5
    endloop
  endfacet
  facet normal 0.125333 0.992115 -0
    outer loop
      vertex 2.28107 3.97343 0.5
      vertex 2.09418 3.99704 20.5
      vertex 2.28107 3.97343 20.5
    endloop
  endfacet
  facet normal 0.125333 0.992115 0
    outer loop
      vertex 2.09418 3.99704 20.5
      vertex 2.28107 3.97343 0.5
      vertex 2.09418 3.99704 0.5
    endloop
  endfacet
  facet normal 0.368126 0.929776 -0
    outer loop
      vertex 2.63867 3.85724 0.5
      vertex 2.46352 3.92658 20.5
      vertex 2.63867 3.85724 20.5
    endloop
  endfacet
  facet normal 0.368126 0.929776 0
    outer loop
      vertex 2.46352 3.92658 20.5
      vertex 2.63867 3.85724 0.5
      vertex 2.46352 3.92658 0.5
    endloop
  endfacet
  facet normal 0.587783 0.809019 -0
    outer loop
      vertex 2.95614 3.65577 0.5
      vertex 2.80374 3.76649 20.5
      vertex 2.95614 3.65577 20.5
    endloop
  endfacet
  facet normal 0.587783 0.809019 0
    outer loop
      vertex 2.80374 3.76649 20.5
      vertex 2.95614 3.65577 0.5
      vertex 2.80374 3.76649 0.5
    endloop
  endfacet
  facet normal -0.998027 -0.0627877 0
    outer loop
      vertex 0.511827 2.312 0.5
      vertex 0.5 2.5 20.5
      vertex 0.5 2.5 0.5
    endloop
  endfacet
  facet normal -0.998027 -0.0627877 0
    outer loop
      vertex 0.5 2.5 20.5
      vertex 0.511827 2.312 0.5
      vertex 0.511827 2.312 20.5
    endloop
  endfacet
  facet normal -0.982287 0.187382 0
    outer loop
      vertex 0.511827 2.688 0.5
      vertex 0.547125 2.87303 20.5
      vertex 0.547125 2.87303 0.5
    endloop
  endfacet
  facet normal -0.982287 0.187382 0
    outer loop
      vertex 0.547125 2.87303 20.5
      vertex 0.511827 2.688 0.5
      vertex 0.511827 2.688 20.5
    endloop
  endfacet
  facet normal -0.904829 0.425775 0
    outer loop
      vertex 0.605335 3.05219 0.5
      vertex 0.685539 3.22263 20.5
      vertex 0.685539 3.22263 0.5
    endloop
  endfacet
  facet normal -0.904829 0.425775 0
    outer loop
      vertex 0.685539 3.22263 20.5
      vertex 0.605335 3.05219 0.5
      vertex 0.605335 3.05219 20.5
    endloop
  endfacet
  facet normal -0.368126 0.929776 0
    outer loop
      vertex 1.53647 3.92658 0.5
      vertex 1.36133 3.85724 20.5
      vertex 1.53647 3.92658 20.5
    endloop
  endfacet
  facet normal -0.368126 0.929776 0
    outer loop
      vertex 1.36133 3.85724 20.5
      vertex 1.53647 3.92658 0.5
      vertex 1.36133 3.85724 0.5
    endloop
  endfacet
  facet normal -0.684548 0.728968 0
    outer loop
      vertex 1.04386 3.65577 0.5
      vertex 0.906547 3.52682 20.5
      vertex 1.04386 3.65577 20.5
    endloop
  endfacet
  facet normal -0.684548 0.728968 0
    outer loop
      vertex 0.906547 3.52682 20.5
      vertex 1.04386 3.65577 0.5
      vertex 0.906547 3.52682 0.5
    endloop
  endfacet
  facet normal -0.770513 0.637424 0
    outer loop
      vertex 0.786474 3.38168 0.5
      vertex 0.906547 3.52682 20.5
      vertex 0.906547 3.52682 0.5
    endloop
  endfacet
  facet normal -0.770513 0.637424 0
    outer loop
      vertex 0.906547 3.52682 20.5
      vertex 0.786474 3.38168 0.5
      vertex 0.786474 3.38168 20.5
    endloop
  endfacet
  facet normal 0.998027 -0.0627928 0
    outer loop
      vertex 3.48817 2.312 20.5
      vertex 3.5 2.5 0.5
      vertex 3.5 2.5 20.5
    endloop
  endfacet
  facet normal 0.998027 -0.0627928 0
    outer loop
      vertex 3.5 2.5 0.5
      vertex 3.48817 2.312 20.5
      vertex 3.48817 2.312 0.5
    endloop
  endfacet
  facet normal -0.982287 -0.187382 0
    outer loop
      vertex 0.547125 2.12696 0.5
      vertex 0.511827 2.312 20.5
      vertex 0.511827 2.312 0.5
    endloop
  endfacet
  facet normal -0.982287 -0.187382 0
    outer loop
      vertex 0.511827 2.312 20.5
      vertex 0.547125 2.12696 0.5
      vertex 0.547125 2.12696 20.5
    endloop
  endfacet
  facet normal -0.684548 -0.728968 0
    outer loop
      vertex 0.906547 1.47318 0.5
      vertex 1.04386 1.34423 20.5
      vertex 0.906547 1.47318 20.5
    endloop
  endfacet
  facet normal -0.684548 -0.728968 -0
    outer loop
      vertex 1.04386 1.34423 20.5
      vertex 0.906547 1.47318 0.5
      vertex 1.04386 1.34423 0.5
    endloop
  endfacet
  facet normal 0.248692 -0.968583 0
    outer loop
      vertex 2.28107 1.02657 0.5
      vertex 2.46352 1.07341 20.5
      vertex 2.28107 1.02657 20.5
    endloop
  endfacet
  facet normal 0.248692 -0.968583 0
    outer loop
      vertex 2.46352 1.07341 20.5
      vertex 2.28107 1.02657 0.5
      vertex 2.46352 1.07341 0.5
    endloop
  endfacet
  facet normal 0.481754 -0.876307 0
    outer loop
      vertex 2.63867 1.14276 0.5
      vertex 2.80374 1.23351 20.5
      vertex 2.63867 1.14276 20.5
    endloop
  endfacet
  facet normal 0.481754 -0.876307 0
    outer loop
      vertex 2.80374 1.23351 20.5
      vertex 2.63867 1.14276 0.5
      vertex 2.80374 1.23351 0.5
    endloop
  endfacet
  facet normal 0.904829 0.425775 0
    outer loop
      vertex 3.39466 3.05219 20.5
      vertex 3.31446 3.22263 0.5
      vertex 3.31446 3.22263 20.5
    endloop
  endfacet
  facet normal 0.904829 0.425775 0
    outer loop
      vertex 3.31446 3.22263 0.5
      vertex 3.39466 3.05219 20.5
      vertex 3.39466 3.05219 0.5
    endloop
  endfacet
  facet normal 0.951056 0.309019 0
    outer loop
      vertex 3.45287 2.87303 20.5
      vertex 3.39466 3.05219 0.5
      vertex 3.39466 3.05219 20.5
    endloop
  endfacet
  facet normal 0.951056 0.309019 0
    outer loop
      vertex 3.39466 3.05219 0.5
      vertex 3.45287 2.87303 20.5
      vertex 3.45287 2.87303 0.5
    endloop
  endfacet
  facet normal 0 0 1
    outer loop
      vertex 3.48817 2.688 20.5
      vertex 3.48817 2.312 20.5
      vertex 3.5 2.5 20.5
    endloop
  endfacet
  facet normal 0 0 1
    outer loop
      vertex 3.45287 2.87303 20.5
      vertex 3.48817 2.312 20.5
      vertex 3.48817 2.688 20.5
    endloop
  endfacet
  facet normal 0 0 1
    outer loop
      vertex 3.45287 2.87303 20.5
      vertex 3.45287 2.12696 20.5
      vertex 3.48817 2.312 20.5
    endloop
  endfacet
  facet normal 0 0 1
    outer loop
      vertex 3.39466 3.05219 20.5
      vertex 3.45287 2.12696 20.5
      vertex 3.45287 2.87303 20.5
    endloop
  endfacet
  facet normal 0 0 1
    outer loop
      vertex 3.39466 3.05219 20.5
      vertex 3.39466 1.94781 20.5
      vertex 3.45287 2.12696 20.5
    endloop
  endfacet
  facet normal 0 0 1
    outer loop
      vertex 3.31446 3.22263 20.5
      vertex 3.39466 1.94781 20.5
      vertex 3.39466 3.05219 20.5
    endloop
  endfacet
  facet normal 0 0 1
    outer loop
      vertex 3.31446 3.22263 20.5
      vertex 3.31446 1.77737 20.5
      vertex 3.39466 1.94781 20.5
    endloop
  endfacet
  facet normal 0 0 1
    outer loop
      vertex 3.21352 3.38168 20.5
      vertex 3.31446 1.77737 20.5
      vertex 3.31446 3.22263 20.5
    endloop
  endfacet
  facet normal 0 0 1
    outer loop
      vertex 3.21352 3.38168 20.5
      vertex 3.21352 1.61832 20.5
      vertex 3.31446 1.77737 20.5
    endloop
  endfacet
  facet normal 0 0 1
    outer loop
      vertex 3.09345 3.52682 20.5
      vertex 3.21352 1.61832 20.5
      vertex 3.21352 3.38168 20.5
    endloop
  endfacet
  facet normal 0 0 1
    outer loop
      vertex 3.09345 3.52682 20.5
      vertex 3.09345 1.47318 20.5
      vertex 3.21352 1.61832 20.5
    endloop
  endfacet
  facet normal 0 0 1
    outer loop
      vertex 2.95614 3.65577 20.5
      vertex 3.09345 1.47318 20.5
      vertex 3.09345 3.52682 20.5
    endloop
  endfacet
  facet normal 0 0 1
    outer loop
      vertex 2.95614 3.65577 20.5
      vertex 2.95614 1.34423 20.5
      vertex 3.09345 1.47318 20.5
    endloop
  endfacet
  facet normal 0 0 1
    outer loop
      vertex 2.80374 3.76649 20.5
      vertex 2.95614 1.34423 20.5
      vertex 2.95614 3.65577 20.5
    endloop
  endfacet
  facet normal 0 0 1
    outer loop
      vertex 2.80374 3.76649 20.5
      vertex 2.80374 1.23351 20.5
      vertex 2.95614 1.34423 20.5
    endloop
  endfacet
  facet normal 0 0 1
    outer loop
      vertex 2.63867 3.85724 20.5
      vertex 2.80374 1.23351 20.5
      vertex 2.80374 3.76649 20.5
    endloop
  endfacet
  facet normal 0 0 1
    outer loop
      vertex 2.63867 3.85724 20.5
      vertex 2.63867 1.14276 20.5
      vertex 2.80374 1.23351 20.5
    endloop
  endfacet
  facet normal 0 0 1
    outer loop
      vertex 2.46352 3.92658 20.5
      vertex 2.63867 1.14276 20.5
      vertex 2.63867 3.85724 20.5
    endloop
  endfacet
  facet normal 0 0 1
    outer loop
      vertex 2.46352 3.92658 20.5
      vertex 2.46352 1.07341 20.5
      vertex 2.63867 1.14276 20.5
    endloop
  endfacet
  facet normal 0 0 1
    outer loop
      vertex 2.28107 3.97343 20.5
      vertex 2.46352 1.07341 20.5
      vertex 2.46352 3.92658 20.5
    endloop
  endfacet
  facet normal 0 0 1
    outer loop
      vertex 2.28107 3.97343 20.5
      vertex 2.28107 1.02657 20.5
      vertex 2.46352 1.07341 20.5
    endloop
  endfacet
  facet normal 0 0 1
    outer loop
      vertex 2.09418 3.99704 20.5
      vertex 2.28107 1.02657 20.5
      vertex 2.28107 3.97343 20.5
    endloop
  endfacet
  facet normal 0 0 1
    outer loop
      vertex 2.09418 3.99704 20.5
      vertex 2.09418 1.00296 20.5
      vertex 2.28107 1.02657 20.5
    endloop
  endfacet
  facet normal -0 0 1
    outer loop
      vertex 1.90581 3.99704 20.5
      vertex 2.09418 1.00296 20.5
      vertex 2.09418 3.99704 20.5
    endloop
  endfacet
  facet normal 0 0 1
    outer loop
      vertex 1.90581 3.99704 20.5
      vertex 1.90581 1.00296 20.5
      vertex 2.09418 1.00296 20.5
    endloop
  endfacet
  facet normal -0 0 1
    outer loop
      vertex 1.71893 3.97343 20.5
      vertex 1.90581 1.00296 20.5
      vertex 1.90581 3.99704 20.5
    endloop
  endfacet
  facet normal 0 0 1
    outer loop
      vertex 1.71893 3.97343 20.5
      vertex 1.71893 1.02657 20.5
      vertex 1.90581 1.00296 20.5
    endloop
  endfacet
  facet normal -0 0 1
    outer loop
      vertex 1.53647 3.92658 20.5
      vertex 1.71893 1.02657 20.5
      vertex 1.71893 3.97343 20.5
    endloop
  endfacet
  facet normal 0 0 1
    outer loop
      vertex 1.53647 3.92658 20.5
      vertex 1.53647 1.07341 20.5
      vertex 1.71893 1.02657 20.5
    endloop
  endfacet
  facet normal -0 0 1
    outer loop
      vertex 1.36133 3.85724 20.5
      vertex 1.53647 1.07341 20.5
      vertex 1.53647 3.92658 20.5
    endloop
  endfacet
  facet normal 0 0 1
    outer loop
      vertex 1.36133 3.85724 20.5
      vertex 1.36133 1.14276 20.5
      vertex 1.53647 1.07341 20.5
    endloop
  endfacet
  facet normal -0 0 1
    outer loop
      vertex 1.19626 3.76649 20.5
      vertex 1.36133 1.14276 20.5
      vertex 1.36133 3.85724 20.5
    endloop
  endfacet
  facet normal 0 0 1
    outer loop
      vertex 1.19626 3.76649 20.5
      vertex 1.19626 1.23351 20.5
      vertex 1.36133 1.14276 20.5
    endloop
  endfacet
  facet normal -0 0 1
    outer loop
      vertex 1.04386 3.65577 20.5
      vertex 1.19626 1.23351 20.5
      vertex 1.19626 3.76649 20.5
    endloop
  endfacet
  facet normal 0 0 1
    outer loop
      vertex 1.04386 3.65577 20.5
      vertex 1.04386 1.34423 20.5
      vertex 1.19626 1.23351 20.5
    endloop
  endfacet
  facet normal -0 0 1
    outer loop
      vertex 0.906547 3.52682 20.5
      vertex 1.04386 1.34423 20.5
      vertex 1.04386 3.65577 20.5
    endloop
  endfacet
  facet normal 0 0 1
    outer loop
      vertex 0.906547 3.52682 20.5
      vertex 0.906547 1.47318 20.5
      vertex 1.04386 1.34423 20.5
    endloop
  endfacet
  facet normal -0 0 1
    outer loop
      vertex 0.786474 3.38168 20.5
      vertex 0.906547 1.47318 20.5
      vertex 0.906547 3.52682 20.5
    endloop
  endfacet
  facet normal 0 0 1
    outer loop
      vertex 0.786474 3.38168 20.5
      vertex 0.786474 1.61832 20.5
      vertex 0.906547 1.47318 20.5
    endloop
  endfacet
  facet normal -0 0 1
    outer loop
      vertex 0.685539 3.22263 20.5
      vertex 0.786474 1.61832 20.5
      vertex 0.786474 3.38168 20.5
    endloop
  endfacet
  facet normal 0 0 1
    outer loop
      vertex 0.685539 3.22263 20.5
      vertex 0.685539 1.77737 20.5
      vertex 0.786474 1.61832 20.5
    endloop
  endfacet
  facet normal -0 0 1
    outer loop
      vertex 0.605335 3.05219 20.5
      vertex 0.685539 1.77737 20.5
      vertex 0.685539 3.22263 20.5
    endloop
  endfacet
  facet normal 0 0 1
    outer loop
      vertex 0.605335 3.05219 20.5
      vertex 0.605335 1.94781 20.5
      vertex 0.685539 1.77737 20.5
    endloop
  endfacet
  facet normal -0 0 1
    outer loop
      vertex 0.547125 2.87303 20.5
      vertex 0.605335 1.94781 20.5
      vertex 0.605335 3.05219 20.5
    endloop
  endfacet
  facet normal 0 0 1
    outer loop
      vertex 0.547125 2.87303 20.5
      vertex 0.547125 2.12696 20.5
      vertex 0.605335 1.94781 20.5
    endloop
  endfacet
  facet normal -0 0 1
    outer loop
      vertex 0.511827 2.688 20.5
      vertex 0.547125 2.12696 20.5
      vertex 0.547125 2.87303 20.5
    endloop
  endfacet
  facet normal 0 0 1
    outer loop
      vertex 0.511827 2.688 20.5
      vertex 0.511827 2.312 20.5
      vertex 0.547125 2.12696 20.5
    endloop
  endfacet
  facet normal 0 -0 1
    outer loop
      vertex 0.511827 2.312 20.5
      vertex 0.511827 2.688 20.5
      vertex 0.5 2.5 20.5
    endloop
  endfacet
  facet normal 0.904829 -0.425775 0
    outer loop
      vertex 3.31446 1.77737 20.5
      vertex 3.39466 1.94781 0.5
      vertex 3.39466 1.94781 20.5
    endloop
  endfacet
  facet normal 0.904829 -0.425775 0
    outer loop
      vertex 3.39466 1.94781 0.5
      vertex 3.31446 1.77737 20.5
      vertex 3.31446 1.77737 0.5
    endloop
  endfacet
  facet normal 0.951056 -0.309019 0
    outer loop
      vertex 3.39466 1.94781 20.5
      vertex 3.45287 2.12696 0.5
      vertex 3.45287 2.12696 20.5
    endloop
  endfacet
  facet normal 0.951056 -0.309019 0
    outer loop
      vertex 3.45287 2.12696 0.5
      vertex 3.39466 1.94781 20.5
      vertex 3.39466 1.94781 0.5
    endloop
  endfacet
  facet normal 0.844326 -0.535829 0
    outer loop
      vertex 3.21352 1.61832 20.5
      vertex 3.31446 1.77737 0.5
      vertex 3.31446 1.77737 20.5
    endloop
  endfacet
  facet normal 0.844326 -0.535829 0
    outer loop
      vertex 3.31446 1.77737 0.5
      vertex 3.21352 1.61832 20.5
      vertex 3.21352 1.61832 0.5
    endloop
  endfacet
  facet normal -0.368126 -0.929776 0
    outer loop
      vertex 1.36133 1.14276 0.5
      vertex 1.53647 1.07341 20.5
      vertex 1.36133 1.14276 20.5
    endloop
  endfacet
  facet normal -0.368126 -0.929776 -0
    outer loop
      vertex 1.53647 1.07341 20.5
      vertex 1.36133 1.14276 0.5
      vertex 1.53647 1.07341 0.5
    endloop
  endfacet
  facet normal -0.125333 -0.992115 0
    outer loop
      vertex 1.71893 1.02657 0.5
      vertex 1.90581 1.00296 20.5
      vertex 1.71893 1.02657 20.5
    endloop
  endfacet
  facet normal -0.125333 -0.992115 -0
    outer loop
      vertex 1.90581 1.00296 20.5
      vertex 1.71893 1.02657 0.5
      vertex 1.90581 1.00296 0.5
    endloop
  endfacet
  facet normal 0 -1 0
    outer loop
      vertex 1.90581 1.00296 0.5
      vertex 2.09418 1.00296 20.5
      vertex 1.90581 1.00296 20.5
    endloop
  endfacet
  facet normal 0 -1 -0
    outer loop
      vertex 2.09418 1.00296 20.5
      vertex 1.90581 1.00296 0.5
      vertex 2.09418 1.00296 0.5
    endloop
  endfacet
  facet normal -0.904829 -0.425775 0
    outer loop
      vertex 0.685539 1.77737 0.5
      vertex 0.605335 1.94781 20.5
      vertex 0.605335 1.94781 0.5
    endloop
  endfacet
  facet normal -0.904829 -0.425775 0
    outer loop
      vertex 0.605335 1.94781 20.5
      vertex 0.685539 1.77737 0.5
      vertex 0.685539 1.77737 20.5
    endloop
  endfacet
  facet normal -0.951056 -0.309019 0
    outer loop
      vertex 0.605335 1.94781 0.5
      vertex 0.547125 2.12696 20.5
      vertex 0.547125 2.12696 0.5
    endloop
  endfacet
  facet normal -0.951056 -0.309019 0
    outer loop
      vertex 0.547125 2.12696 20.5
      vertex 0.605335 1.94781 0.5
      vertex 0.605335 1.94781 20.5
    endloop
  endfacet
  facet normal 0.368126 -0.929776 0
    outer loop
      vertex 2.46352 1.07341 0.5
      vertex 2.63867 1.14276 20.5
      vertex 2.46352 1.07341 20.5
    endloop
  endfacet
  facet normal 0.368126 -0.929776 0
    outer loop
      vertex 2.63867 1.14276 20.5
      vertex 2.46352 1.07341 0.5
      vertex 2.63867 1.14276 0.5
    endloop
  endfacet
  facet normal 0.684548 -0.728968 0
    outer loop
      vertex 2.95614 1.34423 0.5
      vertex 3.09345 1.47318 20.5
      vertex 2.95614 1.34423 20.5
    endloop
  endfacet
  facet normal 0.684548 -0.728968 0
    outer loop
      vertex 3.09345 1.47318 20.5
      vertex 2.95614 1.34423 0.5
      vertex 3.09345 1.47318 0.5
    endloop
  endfacet
  facet normal 0.125333 -0.992115 0
    outer loop
      vertex 2.09418 1.00296 0.5
      vertex 2.28107 1.02657 20.5
      vertex 2.09418 1.00296 20.5
    endloop
  endfacet
  facet normal 0.125333 -0.992115 0
    outer loop
      vertex 2.28107 1.02657 20.5
      vertex 2.09418 1.00296 0.5
      vertex 2.28107 1.02657 0.5
    endloop
  endfacet
  facet normal -0.481754 -0.876307 0
    outer loop
      vertex 1.19626 1.23351 0.5
      vertex 1.36133 1.14276 20.5
      vertex 1.19626 1.23351 20.5
    endloop
  endfacet
  facet normal -0.481754 -0.876307 -0
    outer loop
      vertex 1.36133 1.14276 20.5
      vertex 1.19626 1.23351 0.5
      vertex 1.36133 1.14276 0.5
    endloop
  endfacet
  facet normal -0.770513 -0.637424 0
    outer loop
      vertex 0.906547 1.47318 0.5
      vertex 0.786474 1.61832 20.5
      vertex 0.786474 1.61832 0.5
    endloop
  endfacet
  facet normal -0.770513 -0.637424 0
    outer loop
      vertex 0.786474 1.61832 20.5
      vertex 0.906547 1.47318 0.5
      vertex 0.906547 1.47318 20.5
    endloop
  endfacet
  facet normal 0.770513 -0.637424 0
    outer loop
      vertex 3.09345 1.47318 20.5
      vertex 3.21352 1.61832 0.5
      vertex 3.21352 1.61832 20.5
    endloop
  endfacet
  facet normal 0.770513 -0.637424 0
    outer loop
      vertex 3.21352 1.61832 0.5
      vertex 3.09345 1.47318 20.5
      vertex 3.09345 1.47318 0.5
    endloop
  endfacet
  facet normal -0.248692 -0.968583 0
    outer loop
      vertex 1.53647 1.07341 0.5
      vertex 1.71893 1.02657 20.5
      vertex 1.53647 1.07341 20.5
    endloop
  endfacet
  facet normal -0.248692 -0.968583 -0
    outer loop
      vertex 1.71893 1.02657 20.5
      vertex 1.53647 1.07341 0.5
      vertex 1.71893 1.02657 0.5
    endloop
  endfacet
  facet normal -0.982287 0.187382 0
    outer loop
      vertex 16.5118 2.688 0.5
      vertex 16.5471 2.87303 20.5
      vertex 16.5471 2.87303 0.5
    endloop
  endfacet
  facet normal -0.982287 0.187382 0
    outer loop
      vertex 16.5471 2.87303 20.5
      vertex 16.5118 2.688 0.5
      vertex 16.5118 2.688 20.5
    endloop
  endfacet
  facet normal 0.844322 0.535836 0
    outer loop
      vertex 19.3145 3.22263 20.5
      vertex 19.2135 3.38168 0.5
      vertex 19.2135 3.38168 20.5
    endloop
  endfacet
  facet normal 0.844322 0.535836 0
    outer loop
      vertex 19.2135 3.38168 0.5
      vertex 19.3145 3.22263 20.5
      vertex 19.3145 3.22263 0.5
    endloop
  endfacet
  facet normal 0.125333 0.992115 -0
    outer loop
      vertex 18.2811 3.97343 0.5
      vertex 18.0942 3.99704 20.5
      vertex 18.2811 3.97343 20.5
    endloop
  endfacet
  facet normal 0.125333 0.992115 0
    outer loop
      vertex 18.0942 3.99704 20.5
      vertex 18.2811 3.97343 0.5
      vertex 18.0942 3.99704 0.5
    endloop
  endfacet
  facet normal 0.248692 0.968583 -0
    outer loop
      vertex 18.4635 3.92658 0.5
      vertex 18.2811 3.97343 20.5
      vertex 18.4635 3.92658 20.5
    endloop
  endfacet
  facet normal 0.248692 0.968583 0
    outer loop
      vertex 18.2811 3.97343 20.5
      vertex 18.4635 3.92658 0.5
      vertex 18.2811 3.97343 0.5
    endloop
  endfacet
  facet normal -0.481749 0.876309 0
    outer loop
      vertex 17.3613 3.85724 0.5
      vertex 17.1963 3.76649 20.5
      vertex 17.3613 3.85724 20.5
    endloop
  endfacet
  facet normal -0.481749 0.876309 0
    outer loop
      vertex 17.1963 3.76649 20.5
      vertex 17.3613 3.85724 0.5
      vertex 17.1963 3.76649 0.5
    endloop
  endfacet
  facet normal -0.951056 0.309019 0
    outer loop
      vertex 16.5471 2.87303 0.5
      vertex 16.6053 3.05219 20.5
      vertex 16.6053 3.05219 0.5
    endloop
  endfacet
  facet normal -0.951056 0.309019 0
    outer loop
      vertex 16.6053 3.05219 20.5
      vertex 16.5471 2.87303 0.5
      vertex 16.5471 2.87303 20.5
    endloop
  endfacet
  facet normal 0.998026 -0.0627978 0
    outer loop
      vertex 19.4882 2.312 20.5
      vertex 19.5 2.5 0.5
      vertex 19.5 2.5 20.5
    endloop
  endfacet
  facet normal 0.998026 -0.0627978 0
    outer loop
      vertex 19.5 2.5 0.5
      vertex 19.4882 2.312 20.5
      vertex 19.4882 2.312 0.5
    endloop
  endfacet
  facet normal 0.481754 -0.876307 0
    outer loop
      vertex 18.6387 1.14276 0.5
      vertex 18.8037 1.23351 20.5
      vertex 18.6387 1.14276 20.5
    endloop
  endfacet
  facet normal 0.481754 -0.876307 0
    outer loop
      vertex 18.8037 1.23351 20.5
      vertex 18.6387 1.14276 0.5
      vertex 18.8037 1.23351 0.5
    endloop
  endfacet
  facet normal 0.684545 0.72897 -0
    outer loop
      vertex 19.0935 3.52682 0.5
      vertex 18.9561 3.65577 20.5
      vertex 19.0935 3.52682 20.5
    endloop
  endfacet
  facet normal 0.684545 0.72897 0
    outer loop
      vertex 18.9561 3.65577 20.5
      vertex 19.0935 3.52682 0.5
      vertex 18.9561 3.65577 0.5
    endloop
  endfacet
  facet normal 0 1 -0
    outer loop
      vertex 18.0942 3.99704 0.5
      vertex 17.9058 3.99704 20.5
      vertex 18.0942 3.99704 20.5
    endloop
  endfacet
  facet normal 0 1 0
    outer loop
      vertex 17.9058 3.99704 20.5
      vertex 18.0942 3.99704 0.5
      vertex 17.9058 3.99704 0.5
    endloop
  endfacet
  facet normal -0.998027 -0.0627877 0
    outer loop
      vertex 16.5118 2.312 0.5
      vertex 16.5 2.5 20.5
      vertex 16.5 2.5 0.5
    endloop
  endfacet
  facet normal -0.998027 -0.0627877 0
    outer loop
      vertex 16.5 2.5 20.5
      vertex 16.5118 2.312 0.5
      vertex 16.5118 2.312 20.5
    endloop
  endfacet
  facet normal -0.844326 0.535829 0
    outer loop
      vertex 16.6855 3.22263 0.5
      vertex 16.7865 3.38168 20.5
      vertex 16.7865 3.38168 0.5
    endloop
  endfacet
  facet normal -0.844326 0.535829 0
    outer loop
      vertex 16.7865 3.38168 20.5
      vertex 16.6855 3.22263 0.5
      vertex 16.6855 3.22263 20.5
    endloop
  endfacet
  facet normal -0.587785 0.809017 0
    outer loop
      vertex 17.1963 3.76649 0.5
      vertex 17.0439 3.65577 20.5
      vertex 17.1963 3.76649 20.5
    endloop
  endfacet
  facet normal -0.587785 0.809017 0
    outer loop
      vertex 17.0439 3.65577 20.5
      vertex 17.1963 3.76649 0.5
      vertex 17.0439 3.65577 0.5
    endloop
  endfacet
  facet normal -0.248692 0.968583 0
    outer loop
      vertex 17.7189 3.97343 0.5
      vertex 17.5365 3.92658 20.5
      vertex 17.7189 3.97343 20.5
    endloop
  endfacet
  facet normal -0.248692 0.968583 0
    outer loop
      vertex 17.5365 3.92658 20.5
      vertex 17.7189 3.97343 0.5
      vertex 17.5365 3.92658 0.5
    endloop
  endfacet
  facet normal -0.68455 0.728966 0
    outer loop
      vertex 17.0439 3.65577 0.5
      vertex 16.9065 3.52682 20.5
      vertex 17.0439 3.65577 20.5
    endloop
  endfacet
  facet normal -0.68455 0.728966 0
    outer loop
      vertex 16.9065 3.52682 20.5
      vertex 17.0439 3.65577 0.5
      vertex 16.9065 3.52682 0.5
    endloop
  endfacet
  facet normal 0.998026 0.0627981 0
    outer loop
      vertex 19.5 2.5 20.5
      vertex 19.4882 2.688 0.5
      vertex 19.4882 2.688 20.5
    endloop
  endfacet
  facet normal 0.998026 0.0627981 0
    outer loop
      vertex 19.4882 2.688 0.5
      vertex 19.5 2.5 20.5
      vertex 19.5 2.5 0.5
    endloop
  endfacet
  facet normal 0 -1 0
    outer loop
      vertex 17.9058 1.00296 0.5
      vertex 18.0942 1.00296 20.5
      vertex 17.9058 1.00296 20.5
    endloop
  endfacet
  facet normal 0 -1 -0
    outer loop
      vertex 18.0942 1.00296 20.5
      vertex 17.9058 1.00296 0.5
      vertex 18.0942 1.00296 0.5
    endloop
  endfacet
  facet normal 0.368125 -0.929776 0
    outer loop
      vertex 18.4635 1.07341 0.5
      vertex 18.6387 1.14276 20.5
      vertex 18.4635 1.07341 20.5
    endloop
  endfacet
  facet normal 0.368125 -0.929776 0
    outer loop
      vertex 18.6387 1.14276 20.5
      vertex 18.4635 1.07341 0.5
      vertex 18.6387 1.14276 0.5
    endloop
  endfacet
  facet normal 0.587785 -0.809017 0
    outer loop
      vertex 18.8037 1.23351 0.5
      vertex 18.9561 1.34423 20.5
      vertex 18.8037 1.23351 20.5
    endloop
  endfacet
  facet normal 0.587785 -0.809017 0
    outer loop
      vertex 18.9561 1.34423 20.5
      vertex 18.8037 1.23351 0.5
      vertex 18.9561 1.34423 0.5
    endloop
  endfacet
  facet normal 0.770516 0.637421 0
    outer loop
      vertex 19.2135 3.38168 20.5
      vertex 19.0935 3.52682 0.5
      vertex 19.0935 3.52682 20.5
    endloop
  endfacet
  facet normal 0.770516 0.637421 0
    outer loop
      vertex 19.0935 3.52682 0.5
      vertex 19.2135 3.38168 20.5
      vertex 19.2135 3.38168 0.5
    endloop
  endfacet
  facet normal -0.125332 0.992115 0
    outer loop
      vertex 17.9058 3.99704 0.5
      vertex 17.7189 3.97343 20.5
      vertex 17.9058 3.99704 20.5
    endloop
  endfacet
  facet normal -0.125332 0.992115 0
    outer loop
      vertex 17.7189 3.97343 20.5
      vertex 17.9058 3.99704 0.5
      vertex 17.7189 3.97343 0.5
    endloop
  endfacet
  facet normal 0.587785 0.809017 -0
    outer loop
      vertex 18.9561 3.65577 0.5
      vertex 18.8037 3.76649 20.5
      vertex 18.9561 3.65577 20.5
    endloop
  endfacet
  facet normal 0.587785 0.809017 0
    outer loop
      vertex 18.8037 3.76649 20.5
      vertex 18.9561 3.65577 0.5
      vertex 18.8037 3.76649 0.5
    endloop
  endfacet
  facet normal 0.368125 0.929776 -0
    outer loop
      vertex 18.6387 3.85724 0.5
      vertex 18.4635 3.92658 20.5
      vertex 18.6387 3.85724 20.5
    endloop
  endfacet
  facet normal 0.368125 0.929776 0
    outer loop
      vertex 18.4635 3.92658 20.5
      vertex 18.6387 3.85724 0.5
      vertex 18.4635 3.92658 0.5
    endloop
  endfacet
  facet normal 0.481754 0.876307 -0
    outer loop
      vertex 18.8037 3.76649 0.5
      vertex 18.6387 3.85724 20.5
      vertex 18.8037 3.76649 20.5
    endloop
  endfacet
  facet normal 0.481754 0.876307 0
    outer loop
      vertex 18.6387 3.85724 20.5
      vertex 18.8037 3.76649 0.5
      vertex 18.6387 3.85724 0.5
    endloop
  endfacet
  facet normal -0.770511 0.637427 0
    outer loop
      vertex 16.7865 3.38168 0.5
      vertex 16.9065 3.52682 20.5
      vertex 16.9065 3.52682 0.5
    endloop
  endfacet
  facet normal -0.770511 0.637427 0
    outer loop
      vertex 16.9065 3.52682 20.5
      vertex 16.7865 3.38168 0.5
      vertex 16.7865 3.38168 20.5
    endloop
  endfacet
  facet normal 0.982287 -0.187382 0
    outer loop
      vertex 19.4529 2.12696 20.5
      vertex 19.4882 2.312 0.5
      vertex 19.4882 2.312 20.5
    endloop
  endfacet
  facet normal 0.982287 -0.187382 0
    outer loop
      vertex 19.4882 2.312 0.5
      vertex 19.4529 2.12696 20.5
      vertex 19.4529 2.12696 0.5
    endloop
  endfacet
  facet normal -0.125332 -0.992115 0
    outer loop
      vertex 17.7189 1.02657 0.5
      vertex 17.9058 1.00296 20.5
      vertex 17.7189 1.02657 20.5
    endloop
  endfacet
  facet normal -0.125332 -0.992115 -0
    outer loop
      vertex 17.9058 1.00296 20.5
      vertex 17.7189 1.02657 0.5
      vertex 17.9058 1.00296 0.5
    endloop
  endfacet
  facet normal -0.982287 -0.187382 0
    outer loop
      vertex 16.5471 2.12696 0.5
      vertex 16.5118 2.312 20.5
      vertex 16.5118 2.312 0.5
    endloop
  endfacet
  facet normal -0.982287 -0.187382 0
    outer loop
      vertex 16.5118 2.312 20.5
      vertex 16.5471 2.12696 0.5
      vertex 16.5471 2.12696 20.5
    endloop
  endfacet
  facet normal -0.951056 -0.309019 0
    outer loop
      vertex 16.6053 1.94781 0.5
      vertex 16.5471 2.12696 20.5
      vertex 16.5471 2.12696 0.5
    endloop
  endfacet
  facet normal -0.951056 -0.309019 0
    outer loop
      vertex 16.5471 2.12696 20.5
      vertex 16.6053 1.94781 0.5
      vertex 16.6053 1.94781 20.5
    endloop
  endfacet
  facet normal 0.248692 -0.968583 0
    outer loop
      vertex 18.2811 1.02657 0.5
      vertex 18.4635 1.07341 20.5
      vertex 18.2811 1.02657 20.5
    endloop
  endfacet
  facet normal 0.248692 -0.968583 0
    outer loop
      vertex 18.4635 1.07341 20.5
      vertex 18.2811 1.02657 0.5
      vertex 18.4635 1.07341 0.5
    endloop
  endfacet
  facet normal 0.904829 0.425775 0
    outer loop
      vertex 19.3947 3.05219 20.5
      vertex 19.3145 3.22263 0.5
      vertex 19.3145 3.22263 20.5
    endloop
  endfacet
  facet normal 0.904829 0.425775 0
    outer loop
      vertex 19.3145 3.22263 0.5
      vertex 19.3947 3.05219 20.5
      vertex 19.3947 3.05219 0.5
    endloop
  endfacet
  facet normal 0.951059 0.30901 0
    outer loop
      vertex 19.4529 2.87303 20.5
      vertex 19.3947 3.05219 0.5
      vertex 19.3947 3.05219 20.5
    endloop
  endfacet
  facet normal 0.951059 0.30901 0
    outer loop
      vertex 19.3947 3.05219 0.5
      vertex 19.4529 2.87303 20.5
      vertex 19.4529 2.87303 0.5
    endloop
  endfacet
  facet normal 0.982287 0.187382 0
    outer loop
      vertex 19.4882 2.688 20.5
      vertex 19.4529 2.87303 0.5
      vertex 19.4529 2.87303 20.5
    endloop
  endfacet
  facet normal 0.982287 0.187382 0
    outer loop
      vertex 19.4529 2.87303 0.5
      vertex 19.4882 2.688 20.5
      vertex 19.4882 2.688 0.5
    endloop
  endfacet
  facet normal 0 0 1
    outer loop
      vertex 19.4882 2.688 20.5
      vertex 19.4882 2.312 20.5
      vertex 19.5 2.5 20.5
    endloop
  endfacet
  facet normal 0 0 1
    outer loop
      vertex 19.4529 2.87303 20.5
      vertex 19.4882 2.312 20.5
      vertex 19.4882 2.688 20.5
    endloop
  endfacet
  facet normal 0 0 1
    outer loop
      vertex 19.4529 2.87303 20.5
      vertex 19.4529 2.12696 20.5
      vertex 19.4882 2.312 20.5
    endloop
  endfacet
  facet normal 0 0 1
    outer loop
      vertex 19.3947 3.05219 20.5
      vertex 19.4529 2.12696 20.5
      vertex 19.4529 2.87303 20.5
    endloop
  endfacet
  facet normal 0 0 1
    outer loop
      vertex 19.3947 3.05219 20.5
      vertex 19.3947 1.94781 20.5
      vertex 19.4529 2.12696 20.5
    endloop
  endfacet
  facet normal 0 0 1
    outer loop
      vertex 19.3145 3.22263 20.5
      vertex 19.3947 1.94781 20.5
      vertex 19.3947 3.05219 20.5
    endloop
  endfacet
  facet normal 0 0 1
    outer loop
      vertex 19.3145 3.22263 20.5
      vertex 19.3145 1.77737 20.5
      vertex 19.3947 1.94781 20.5
    endloop
  endfacet
  facet normal 0 0 1
    outer loop
      vertex 19.2135 3.38168 20.5
      vertex 19.3145 1.77737 20.5
      vertex 19.3145 3.22263 20.5
    endloop
  endfacet
  facet normal 0 0 1
    outer loop
      vertex 19.2135 3.38168 20.5
      vertex 19.2135 1.61832 20.5
      vertex 19.3145 1.77737 20.5
    endloop
  endfacet
  facet normal 0 0 1
    outer loop
      vertex 19.0935 3.52682 20.5
      vertex 19.2135 1.61832 20.5
      vertex 19.2135 3.38168 20.5
    endloop
  endfacet
  facet normal 0 0 1
    outer loop
      vertex 19.0935 3.52682 20.5
      vertex 19.0935 1.47318 20.5
      vertex 19.2135 1.61832 20.5
    endloop
  endfacet
  facet normal 0 0 1
    outer loop
      vertex 18.9561 3.65577 20.5
      vertex 19.0935 1.47318 20.5
      vertex 19.0935 3.52682 20.5
    endloop
  endfacet
  facet normal 0 0 1
    outer loop
      vertex 18.9561 3.65577 20.5
      vertex 18.9561 1.34423 20.5
      vertex 19.0935 1.47318 20.5
    endloop
  endfacet
  facet normal 0 0 1
    outer loop
      vertex 18.8037 3.76649 20.5
      vertex 18.9561 1.34423 20.5
      vertex 18.9561 3.65577 20.5
    endloop
  endfacet
  facet normal 0 0 1
    outer loop
      vertex 18.8037 3.76649 20.5
      vertex 18.8037 1.23351 20.5
      vertex 18.9561 1.34423 20.5
    endloop
  endfacet
  facet normal 0 0 1
    outer loop
      vertex 18.6387 3.85724 20.5
      vertex 18.8037 1.23351 20.5
      vertex 18.8037 3.76649 20.5
    endloop
  endfacet
  facet normal 0 0 1
    outer loop
      vertex 18.6387 3.85724 20.5
      vertex 18.6387 1.14276 20.5
      vertex 18.8037 1.23351 20.5
    endloop
  endfacet
  facet normal 0 0 1
    outer loop
      vertex 18.4635 3.92658 20.5
      vertex 18.6387 1.14276 20.5
      vertex 18.6387 3.85724 20.5
    endloop
  endfacet
  facet normal 0 0 1
    outer loop
      vertex 18.4635 3.92658 20.5
      vertex 18.4635 1.07341 20.5
      vertex 18.6387 1.14276 20.5
    endloop
  endfacet
  facet normal 0 0 1
    outer loop
      vertex 18.2811 3.97343 20.5
      vertex 18.4635 1.07341 20.5
      vertex 18.4635 3.92658 20.5
    endloop
  endfacet
  facet normal 0 0 1
    outer loop
      vertex 18.2811 3.97343 20.5
      vertex 18.2811 1.02657 20.5
      vertex 18.4635 1.07341 20.5
    endloop
  endfacet
  facet normal 0 0 1
    outer loop
      vertex 18.0942 3.99704 20.5
      vertex 18.2811 1.02657 20.5
      vertex 18.2811 3.97343 20.5
    endloop
  endfacet
  facet normal 0 0 1
    outer loop
      vertex 18.0942 3.99704 20.5
      vertex 18.0942 1.00296 20.5
      vertex 18.2811 1.02657 20.5
    endloop
  endfacet
  facet normal -0 0 1
    outer loop
      vertex 17.9058 3.99704 20.5
      vertex 18.0942 1.00296 20.5
      vertex 18.0942 3.99704 20.5
    endloop
  endfacet
  facet normal 0 0 1
    outer loop
      vertex 17.9058 3.99704 20.5
      vertex 17.9058 1.00296 20.5
      vertex 18.0942 1.00296 20.5
    endloop
  endfacet
  facet normal -0 0 1
    outer loop
      vertex 17.7189 3.97343 20.5
      vertex 17.9058 1.00296 20.5
      vertex 17.9058 3.99704 20.5
    endloop
  endfacet
  facet normal 0 0 1
    outer loop
      vertex 17.7189 3.97343 20.5
      vertex 17.7189 1.02657 20.5
      vertex 17.9058 1.00296 20.5
    endloop
  endfacet
  facet normal -0 0 1
    outer loop
      vertex 17.5365 3.92658 20.5
      vertex 17.7189 1.02657 20.5
      vertex 17.7189 3.97343 20.5
    endloop
  endfacet
  facet normal 0 0 1
    outer loop
      vertex 17.5365 3.92658 20.5
      vertex 17.5365 1.07341 20.5
      vertex 17.7189 1.02657 20.5
    endloop
  endfacet
  facet normal -0 0 1
    outer loop
      vertex 17.3613 3.85724 20.5
      vertex 17.5365 1.07341 20.5
      vertex 17.5365 3.92658 20.5
    endloop
  endfacet
  facet normal 0 0 1
    outer loop
      vertex 17.3613 3.85724 20.5
      vertex 17.3613 1.14276 20.5
      vertex 17.5365 1.07341 20.5
    endloop
  endfacet
  facet normal -0 0 1
    outer loop
      vertex 17.1963 3.76649 20.5
      vertex 17.3613 1.14276 20.5
      vertex 17.3613 3.85724 20.5
    endloop
  endfacet
  facet normal 0 0 1
    outer loop
      vertex 17.1963 3.76649 20.5
      vertex 17.1963 1.23351 20.5
      vertex 17.3613 1.14276 20.5
    endloop
  endfacet
  facet normal -0 0 1
    outer loop
      vertex 17.0439 3.65577 20.5
      vertex 17.1963 1.23351 20.5
      vertex 17.1963 3.76649 20.5
    endloop
  endfacet
  facet normal 0 0 1
    outer loop
      vertex 17.0439 3.65577 20.5
      vertex 17.0439 1.34423 20.5
      vertex 17.1963 1.23351 20.5
    endloop
  endfacet
  facet normal -0 0 1
    outer loop
      vertex 16.9065 3.52682 20.5
      vertex 17.0439 1.34423 20.5
      vertex 17.0439 3.65577 20.5
    endloop
  endfacet
  facet normal 0 0 1
    outer loop
      vertex 16.9065 3.52682 20.5
      vertex 16.9065 1.47318 20.5
      vertex 17.0439 1.34423 20.5
    endloop
  endfacet
  facet normal -0 0 1
    outer loop
      vertex 16.7865 3.38168 20.5
      vertex 16.9065 1.47318 20.5
      vertex 16.9065 3.52682 20.5
    endloop
  endfacet
  facet normal 0 0 1
    outer loop
      vertex 16.7865 3.38168 20.5
      vertex 16.7865 1.61832 20.5
      vertex 16.9065 1.47318 20.5
    endloop
  endfacet
  facet normal -0 0 1
    outer loop
      vertex 16.6855 3.22263 20.5
      vertex 16.7865 1.61832 20.5
      vertex 16.7865 3.38168 20.5
    endloop
  endfacet
  facet normal 0 0 1
    outer loop
      vertex 16.6855 3.22263 20.5
      vertex 16.6855 1.77737 20.5
      vertex 16.7865 1.61832 20.5
    endloop
  endfacet
  facet normal -0 0 1
    outer loop
      vertex 16.6053 3.05219 20.5
      vertex 16.6855 1.77737 20.5
      vertex 16.6855 3.22263 20.5
    endloop
  endfacet
  facet normal 0 0 1
    outer loop
      vertex 16.6053 3.05219 20.5
      vertex 16.6053 1.94781 20.5
      vertex 16.6855 1.77737 20.5
    endloop
  endfacet
  facet normal -0 0 1
    outer loop
      vertex 16.5471 2.87303 20.5
      vertex 16.6053 1.94781 20.5
      vertex 16.6053 3.05219 20.5
    endloop
  endfacet
  facet normal 0 0 1
    outer loop
      vertex 16.5471 2.87303 20.5
      vertex 16.5471 2.12696 20.5
      vertex 16.6053 1.94781 20.5
    endloop
  endfacet
  facet normal -0 0 1
    outer loop
      vertex 16.5118 2.688 20.5
      vertex 16.5471 2.12696 20.5
      vertex 16.5471 2.87303 20.5
    endloop
  endfacet
  facet normal 0 0 1
    outer loop
      vertex 16.5118 2.688 20.5
      vertex 16.5118 2.312 20.5
      vertex 16.5471 2.12696 20.5
    endloop
  endfacet
  facet normal 0 -0 1
    outer loop
      vertex 16.5118 2.312 20.5
      vertex 16.5118 2.688 20.5
      vertex 16.5 2.5 20.5
    endloop
  endfacet
  facet normal -0.998027 0.062788 0
    outer loop
      vertex 16.5 2.5 0.5
      vertex 16.5118 2.688 20.5
      vertex 16.5118 2.688 0.5
    endloop
  endfacet
  facet normal -0.998027 0.062788 0
    outer loop
      vertex 16.5118 2.688 20.5
      vertex 16.5 2.5 0.5
      vertex 16.5 2.5 20.5
    endloop
  endfacet
  facet normal -0.904829 0.425775 0
    outer loop
      vertex 16.6053 3.05219 0.5
      vertex 16.6855 3.22263 20.5
      vertex 16.6855 3.22263 0.5
    endloop
  endfacet
  facet normal -0.904829 0.425775 0
    outer loop
      vertex 16.6855 3.22263 20.5
      vertex 16.6053 3.05219 0.5
      vertex 16.6053 3.05219 20.5
    endloop
  endfacet
  facet normal -0.368128 0.929775 0
    outer loop
      vertex 17.5365 3.92658 0.5
      vertex 17.3613 3.85724 20.5
      vertex 17.5365 3.92658 20.5
    endloop
  endfacet
  facet normal -0.368128 0.929775 0
    outer loop
      vertex 17.3613 3.85724 20.5
      vertex 17.5365 3.92658 0.5
      vertex 17.3613 3.85724 0.5
    endloop
  endfacet
  facet normal 0.684545 -0.72897 0
    outer loop
      vertex 18.9561 1.34423 0.5
      vertex 19.0935 1.47318 20.5
      vertex 18.9561 1.34423 20.5
    endloop
  endfacet
  facet normal 0.684545 -0.72897 0
    outer loop
      vertex 19.0935 1.47318 20.5
      vertex 18.9561 1.34423 0.5
      vertex 19.0935 1.47318 0.5
    endloop
  endfacet
  facet normal 0.844322 -0.535836 0
    outer loop
      vertex 19.2135 1.61832 20.5
      vertex 19.3145 1.77737 0.5
      vertex 19.3145 1.77737 20.5
    endloop
  endfacet
  facet normal 0.844322 -0.535836 0
    outer loop
      vertex 19.3145 1.77737 0.5
      vertex 19.2135 1.61832 20.5
      vertex 19.2135 1.61832 0.5
    endloop
  endfacet
  facet normal -0.248692 -0.968583 0
    outer loop
      vertex 17.5365 1.07341 0.5
      vertex 17.7189 1.02657 20.5
      vertex 17.5365 1.07341 20.5
    endloop
  endfacet
  facet normal -0.248692 -0.968583 -0
    outer loop
      vertex 17.7189 1.02657 20.5
      vertex 17.5365 1.07341 0.5
      vertex 17.7189 1.02657 0.5
    endloop
  endfacet
  facet normal -0.904829 -0.425775 0
    outer loop
      vertex 16.6855 1.77737 0.5
      vertex 16.6053 1.94781 20.5
      vertex 16.6053 1.94781 0.5
    endloop
  endfacet
  facet normal -0.904829 -0.425775 0
    outer loop
      vertex 16.6053 1.94781 20.5
      vertex 16.6855 1.77737 0.5
      vertex 16.6855 1.77737 20.5
    endloop
  endfacet
  facet normal -0.68455 -0.728966 0
    outer loop
      vertex 16.9065 1.47318 0.5
      vertex 17.0439 1.34423 20.5
      vertex 16.9065 1.47318 20.5
    endloop
  endfacet
  facet normal -0.68455 -0.728966 -0
    outer loop
      vertex 17.0439 1.34423 20.5
      vertex 16.9065 1.47318 0.5
      vertex 17.0439 1.34423 0.5
    endloop
  endfacet
  facet normal 0.951059 -0.30901 0
    outer loop
      vertex 19.3947 1.94781 20.5
      vertex 19.4529 2.12696 0.5
      vertex 19.4529 2.12696 20.5
    endloop
  endfacet
  facet normal 0.951059 -0.30901 0
    outer loop
      vertex 19.4529 2.12696 0.5
      vertex 19.3947 1.94781 20.5
      vertex 19.3947 1.94781 0.5
    endloop
  endfacet
  facet normal 0.904829 -0.425775 0
    outer loop
      vertex 19.3145 1.77737 20.5
      vertex 19.3947 1.94781 0.5
      vertex 19.3947 1.94781 20.5
    endloop
  endfacet
  facet normal 0.904829 -0.425775 0
    outer loop
      vertex 19.3947 1.94781 0.5
      vertex 19.3145 1.77737 20.5
      vertex 19.3145 1.77737 0.5
    endloop
  endfacet
  facet normal -0.587785 -0.809017 0
    outer loop
      vertex 17.0439 1.34423 0.5
      vertex 17.1963 1.23351 20.5
      vertex 17.0439 1.34423 20.5
    endloop
  endfacet
  facet normal -0.587785 -0.809017 -0
    outer loop
      vertex 17.1963 1.23351 20.5
      vertex 17.0439 1.34423 0.5
      vertex 17.1963 1.23351 0.5
    endloop
  endfacet
  facet normal 0.125333 -0.992115 0
    outer loop
      vertex 18.0942 1.00296 0.5
      vertex 18.2811 1.02657 20.5
      vertex 18.0942 1.00296 20.5
    endloop
  endfacet
  facet normal 0.125333 -0.992115 0
    outer loop
      vertex 18.2811 1.02657 20.5
      vertex 18.0942 1.00296 0.5
      vertex 18.2811 1.02657 0.5
    endloop
  endfacet
  facet normal -0.481749 -0.876309 0
    outer loop
      vertex 17.1963 1.23351 0.5
      vertex 17.3613 1.14276 20.5
      vertex 17.1963 1.23351 20.5
    endloop
  endfacet
  facet normal -0.481749 -0.876309 -0
    outer loop
      vertex 17.3613 1.14276 20.5
      vertex 17.1963 1.23351 0.5
      vertex 17.3613 1.14276 0.5
    endloop
  endfacet
  facet normal -0.368128 -0.929775 0
    outer loop
      vertex 17.3613 1.14276 0.5
      vertex 17.5365 1.07341 20.5
      vertex 17.3613 1.14276 20.5
    endloop
  endfacet
  facet normal -0.368128 -0.929775 -0
    outer loop
      vertex 17.5365 1.07341 20.5
      vertex 17.3613 1.14276 0.5
      vertex 17.5365 1.07341 0.5
    endloop
  endfacet
  facet normal -0.770511 -0.637427 0
    outer loop
      vertex 16.9065 1.47318 0.5
      vertex 16.7865 1.61832 20.5
      vertex 16.7865 1.61832 0.5
    endloop
  endfacet
  facet normal -0.770511 -0.637427 0
    outer loop
      vertex 16.7865 1.61832 20.5
      vertex 16.9065 1.47318 0.5
      vertex 16.9065 1.47318 20.5
    endloop
  endfacet
  facet normal -0.844326 -0.535829 0
    outer loop
      vertex 16.7865 1.61832 0.5
      vertex 16.6855 1.77737 20.5
      vertex 16.6855 1.77737 0.5
    endloop
  endfacet
  facet normal -0.844326 -0.535829 0
    outer loop
      vertex 16.6855 1.77737 20.5
      vertex 16.7865 1.61832 0.5
      vertex 16.7865 1.61832 20.5
    endloop
  endfacet
  facet normal 0.770516 -0.637421 0
    outer loop
      vertex 19.0935 1.47318 20.5
      vertex 19.2135 1.61832 0.5
      vertex 19.2135 1.61832 20.5
    endloop
  endfacet
  facet normal 0.770516 -0.637421 0
    outer loop
      vertex 19.2135 1.61832 0.5
      vertex 19.0935 1.47318 20.5
      vertex 19.0935 1.47318 0.5
    endloop
  endfacet
endsolid OpenSCAD_Model
